<svg xmlns="http://www.w3.org/2000/svg" viewBox="0 0 32 32" fill="none">
  <rect width="32" height="32" rx="8" fill="#F9F5EF"/>
  <g transform="translate(4.77 0)">
    <path d="M19.9961 15.3643C21.2821 14.3071 22.044 12.7777 22.3263 11.1546C22.46 10.3866 22.513 9.57784 22.4206 8.80062C21.2613 3.75982 16.7474 0 11.3547 0C5.08351 0 0 5.08351 0 11.3547C0 15.6893 2.20122 19.6367 4.58303 23.1156C5.97729 25.1529 7.37108 27.1935 8.85681 29.1653C9.60339 30.1561 10.4335 31.0898 11.2837 31.9956C11.3487 32.0648 12.0841 31.2927 12.1366 31.236C13.5308 29.7694 14.6841 28.0631 15.83 26.4014C17.7805 23.5729 19.5025 20.6131 21.0444 17.5427C21.2928 17.0483 21.537 16.5519 21.7775 16.0538C21.8114 15.9841 21.7803 15.8964 21.707 15.8713C21.239 15.7102 20.8731 16.1559 20.5746 16.447C18.9598 18.0214 16.824 18.8075 14.6126 18.0456C13.554 17.6811 12.7968 16.9661 12.143 16.0737C14.5276 17.63 17.8608 17.1193 19.9965 15.3638L19.9961 15.3643ZM6.92212 10.804C6.47083 10.804 6.10448 10.4382 6.10448 9.98641C6.10448 9.53466 6.47036 9.1688 6.92212 9.1688C7.37387 9.1688 7.73972 9.53466 7.73972 9.98641C7.73972 10.4382 7.37387 10.804 6.92212 10.804ZM10.0946 13.45C10.0073 13.4389 9.92328 13.4078 9.84528 13.3618C9.68557 13.4198 9.31786 13.7685 9.31786 13.7685C9.40932 13.6097 9.65909 13.3344 9.71899 13.2694C9.66977 13.2267 9.62428 13.1775 9.58203 13.1241L9.5811 13.1259C9.19157 13.1041 8.35167 13.7625 8.35167 13.7625C8.69663 13.1255 9.32249 12.8738 9.41489 12.8395C9.37589 12.7466 9.34711 12.6482 9.33039 12.5488C8.98914 12.4815 8.16733 12.9611 8.16733 12.9611C8.69616 12.3887 9.20594 12.2754 9.32062 12.2563C9.34616 12.0056 9.46363 11.7707 9.71017 11.6161L10.9591 13.1422C10.9591 13.1422 10.7753 13.5373 10.0946 13.4496V13.45ZM14.2254 13.7629C14.2254 13.7629 13.3855 13.1041 12.9959 13.1264L12.995 13.1246C12.9528 13.1784 12.9073 13.2272 12.8581 13.2699C12.918 13.3349 13.1677 13.6097 13.2592 13.769C13.2592 13.769 12.8915 13.4208 12.7318 13.3623C12.6533 13.4082 12.5697 13.4393 12.4824 13.4505C11.8018 13.5382 11.6179 13.1431 11.6179 13.1431L12.8669 11.617C13.113 11.7716 13.2309 12.0065 13.2564 12.2573C13.3711 12.2763 13.8804 12.3896 14.4097 12.962C14.4097 12.962 13.5879 12.4824 13.2467 12.5498C13.2304 12.6496 13.2016 12.7475 13.1622 12.8404C13.2546 12.8748 13.8804 13.1264 14.2254 13.7634V13.7629ZM14.8986 9.98641C14.8986 9.53512 15.2645 9.1688 15.7162 9.1688C16.168 9.1688 16.5338 9.53466 16.5338 9.98641C16.5338 10.4382 16.168 10.804 15.7162 10.804C15.2645 10.804 14.8986 10.4382 14.8986 9.98641Z" fill="#FF4D54"/>
    <path d="M11.3858 13.2053C11.5176 13.1937 11.6444 13.1492 11.7373 13.0712C12.0246 12.8311 12.6157 12.2879 12.826 11.7317C12.8423 11.6885 12.8348 11.6393 12.807 11.6035C12.7146 11.4851 12.397 11.2674 11.3045 11.2484H11.3264C10.2343 11.2674 9.91631 11.4851 9.82392 11.6035C9.79606 11.6393 9.78862 11.6885 9.80487 11.7317C10.0152 12.2884 10.6062 12.8311 10.8936 13.0712C11.019 13.1761 11.2066 13.2207 11.3849 13.2053H11.3858Z" fill="#004A5C"/>
  </g>
</svg>
