<svg width="156" height="60" viewBox="0 0 156 60" fill="none" xmlns="http://www.w3.org/2000/svg">
<rect width="156" height="60" fill="#1E1E1E"/>
<g id="Landing Page">
<rect width="1440" height="8502" transform="translate(-74 -26)" fill="#F9F5EF"/>
<g id="Container">
<rect width="1440" height="900" transform="translate(-74 -26)"/>
<rect width="1440" height="900" transform="translate(-74 -26)" fill="black" fill-opacity="0.2"/>
<g id="Container_2">
<g id="Nav - Desktop" clip-path="url(#clip0_671_3948)">
<g id="Container_3">
<g id="Menu &#226;&#134;&#146; Top">
<g id="Frame 2121452855" filter="url(#filter0_d_671_3948)">
<rect x="6" y="6" width="143.539" height="48" rx="24" fill="#F9F5EF" shape-rendering="crispEdges"/>
<g id="Frame 74">
<g id="Group">
<path id="Vector" d="M37.996 29.3643C39.2821 28.3071 40.044 26.7777 40.3263 25.1546C40.46 24.3866 40.513 23.5778 40.4206 22.8006C39.2613 17.7598 34.7474 14 29.3547 14C23.0835 14 18 19.0835 18 25.3547C18 29.6893 20.2012 33.6367 22.583 37.1156C23.9773 39.1529 25.3711 41.1935 26.8568 43.1653C27.6034 44.1561 28.4335 45.0898 29.2837 45.9956C29.3487 46.0648 30.0841 45.2927 30.1366 45.236C31.5308 43.7694 32.6841 42.0631 33.83 40.4014C35.7805 37.5729 37.5025 34.6131 39.0444 31.5427C39.2928 31.0483 39.537 30.5519 39.7775 30.0538C39.8114 29.9841 39.7803 29.8964 39.707 29.8713C39.239 29.7102 38.8731 30.1559 38.5746 30.447C36.9598 32.0214 34.824 32.8075 32.6126 32.0456C31.554 31.6811 30.7968 30.9661 30.143 30.0737C32.5276 31.63 35.8608 31.1193 37.9965 29.3638L37.996 29.3643ZM24.9221 24.804C24.4708 24.804 24.1045 24.4382 24.1045 23.9864C24.1045 23.5347 24.4704 23.1688 24.9221 23.1688C25.3739 23.1688 25.7397 23.5347 25.7397 23.9864C25.7397 24.4382 25.3739 24.804 24.9221 24.804ZM28.0946 27.45C28.0073 27.4389 27.9233 27.4078 27.8453 27.3618C27.6856 27.4198 27.3179 27.7685 27.3179 27.7685C27.4093 27.6097 27.6591 27.3344 27.719 27.2694C27.6698 27.2267 27.6243 27.1775 27.582 27.1241L27.5811 27.1259C27.1916 27.1041 26.3517 27.7625 26.3517 27.7625C26.6966 27.1255 27.3225 26.8738 27.4149 26.8395C27.3759 26.7466 27.3471 26.6482 27.3304 26.5488C26.9891 26.4815 26.1673 26.9611 26.1673 26.9611C26.6962 26.3887 27.2059 26.2754 27.3206 26.2563C27.3462 26.0056 27.4636 25.7707 27.7102 25.6161L28.9591 27.1422C28.9591 27.1422 28.7753 27.5373 28.0946 27.4496V27.45ZM32.2254 27.7629C32.2254 27.7629 31.3855 27.1041 30.9959 27.1264L30.995 27.1246C30.9528 27.1784 30.9073 27.2272 30.8581 27.2699C30.918 27.3349 31.1677 27.6097 31.2592 27.769C31.2592 27.769 30.8915 27.4208 30.7318 27.3623C30.6533 27.4082 30.5697 27.4393 30.4824 27.4505C29.8018 27.5382 29.6179 27.1431 29.6179 27.1431L30.8669 25.617C31.113 25.7716 31.2309 26.0065 31.2564 26.2573C31.3711 26.2763 31.8804 26.3896 32.4097 26.962C32.4097 26.962 31.5879 26.4824 31.2467 26.5498C31.2304 26.6496 31.2016 26.7475 31.1622 26.8404C31.2546 26.8748 31.8804 27.1264 32.2254 27.7634V27.7629ZM32.8986 23.9864C32.8986 23.5351 33.2645 23.1688 33.7162 23.1688C34.168 23.1688 34.5338 23.5347 34.5338 23.9864C34.5338 24.4382 34.168 24.804 33.7162 24.804C33.2645 24.804 32.8986 24.4382 32.8986 23.9864Z" fill="#FF4D54"/>
<path id="Vector_2" d="M29.3858 27.2053C29.5176 27.1937 29.6444 27.1491 29.7373 27.0711C30.0247 26.8311 30.6157 26.2878 30.826 25.7316C30.8423 25.6884 30.8348 25.6392 30.807 25.6035C30.7146 25.4851 30.397 25.2673 29.3045 25.2483H29.3264C28.2344 25.2673 27.9163 25.4851 27.8239 25.6035C27.7961 25.6392 27.7886 25.6884 27.8049 25.7316C28.0152 26.2883 28.6063 26.8311 28.8937 27.0711C29.019 27.176 29.2066 27.2206 29.3849 27.2053H29.3858Z" fill="#004A5B"/>
</g>
<g id="Group_2">
<g id="Group_3">
<path id="Vector_3" d="M61.5067 44.4375C61.297 44.4697 61.1438 44.4853 61.0473 44.4853C60.7776 44.4853 60.5878 44.4253 60.4768 44.3066C60.3659 44.1878 60.3104 43.9836 60.3104 43.694V41.2803H59.8032V40.7764H60.3104V39.7488H60.9274V40.7764H61.5056V41.2803H60.9274V43.694C60.9274 43.7761 60.9596 43.8416 61.0251 43.8893C61.0905 43.937 61.1771 43.9615 61.287 43.9615H61.5056V44.4375H61.5067Z" fill="#004A5B"/>
<path id="Vector_4" d="M62.1948 40.7765H62.7808V41.4035C62.8329 41.3058 62.8895 41.216 62.9484 41.1361C63.1814 40.8231 63.4677 40.6666 63.8073 40.6666C63.8639 40.6666 63.9227 40.6766 63.9816 40.6977V41.328L63.855 41.3247C63.521 41.3247 63.2646 41.4246 63.0826 41.6244C62.9017 41.8241 62.8108 42.1093 62.8108 42.4789V44.4409H62.1948V40.7765Z" fill="#004A5B"/>
<path id="Vector_5" d="M65.4106 44.5397C65.0522 44.5397 64.7681 44.4443 64.5583 44.2523C64.3486 44.0603 64.2432 43.8017 64.2432 43.4754C64.2432 43.1492 64.342 42.885 64.5395 42.6908C64.737 42.4966 65.0256 42.3757 65.404 42.3279L66.243 42.2214C66.3118 42.2147 66.3761 42.2036 66.4383 42.187C66.5182 42.1659 66.5792 42.1249 66.6236 42.0638C66.668 42.0028 66.6891 41.9251 66.6891 41.8308V41.7997C66.6891 41.6033 66.6147 41.4501 66.466 41.3391C66.3173 41.2282 66.1109 41.1727 65.8468 41.1727C65.5827 41.1727 65.3951 41.2315 65.2531 41.3491C65.1099 41.4668 65.0233 41.6421 64.9945 41.8752H64.4263C64.4563 41.4734 64.5972 41.1716 64.8513 40.9696C65.1055 40.7676 65.4684 40.6666 65.94 40.6666C66.385 40.6666 66.7246 40.7632 66.9566 40.9563C67.1896 41.1494 67.3061 41.4301 67.3061 41.8008V43.8139C67.3061 43.8761 67.325 43.9249 67.3627 43.9626C67.4005 44.0004 67.4515 44.0192 67.5148 44.0192C67.5336 44.0192 67.5603 44.017 67.5958 44.0126C67.6313 44.0081 67.669 44.0015 67.7101 43.9915V44.4365C67.6513 44.4598 67.588 44.4776 67.5214 44.4909C67.4548 44.5042 67.3993 44.512 67.3538 44.512C67.1208 44.512 66.9521 44.4476 66.8467 44.32C66.7779 44.2356 66.7291 44.1158 66.6991 43.9604C66.6536 44.0181 66.6014 44.0725 66.5415 44.1247C66.233 44.401 65.8568 44.5386 65.4118 44.5386L65.4106 44.5397ZM66.688 42.9883V42.591C66.5737 42.6453 66.4472 42.6831 66.3073 42.7042L65.7425 42.7863C65.4462 42.8273 65.2287 42.8961 65.0922 42.9938C64.9545 43.0904 64.8868 43.2224 64.8868 43.3889C64.8868 43.5942 64.9434 43.7529 65.0544 43.8628C65.1654 43.9726 65.3252 44.0292 65.5305 44.0292C65.8546 44.0292 66.1287 43.9415 66.3528 43.7651C66.506 43.6419 66.607 43.5021 66.658 43.3478C66.6669 43.3179 66.6747 43.2712 66.6791 43.2069C66.6858 43.1403 66.6891 43.0682 66.6891 42.9883H66.688Z" fill="#004A5B"/>
<path id="Vector_6" d="M67.9443 40.7765H68.6646L69.6467 43.7762H69.6445L70.661 40.7765H71.3413L69.9752 44.4409H69.3138L67.9443 40.7765Z" fill="#004A5B"/>
<path id="Vector_7" d="M73.3446 44.5397C72.8263 44.5397 72.419 44.3755 72.1227 44.047C71.8264 43.7185 71.6777 43.2635 71.6777 42.6842C71.6777 42.0683 71.8342 41.5777 72.1483 41.2137C72.4623 40.8497 72.884 40.6677 73.4134 40.6677C73.8928 40.6677 74.2801 40.8464 74.5742 41.2015C74.8683 41.5578 75.0159 42.0261 75.0159 42.6054L75.0092 42.8251H72.3325C72.358 43.1902 72.4412 43.4688 72.5822 43.6608C72.7553 43.8938 73.0294 44.0103 73.4034 44.0103C73.6387 44.0103 73.844 43.9438 74.0193 43.8117C74.1947 43.6796 74.3023 43.5098 74.3412 43.3045H74.9504C74.8594 43.7063 74.6763 44.0126 74.4022 44.2245C74.1281 44.4354 73.7752 44.5408 73.3446 44.5408V44.5397ZM74.3733 42.3279C74.3545 41.9872 74.2702 41.7231 74.1192 41.5333C73.9528 41.3236 73.7086 41.2182 73.3868 41.2182C73.0649 41.2182 72.8041 41.3391 72.6099 41.5811C72.4568 41.7708 72.3647 42.0194 72.3325 42.3279H74.3733Z" fill="#004A5B"/>
<path id="Vector_8" d="M75.7661 39.407H76.382V44.4409H75.7661V39.407Z" fill="#004A5B"/>
<path id="Vector_9" d="M79.2107 39.407H79.8277V41.2525C80.0974 40.8575 80.4448 40.6621 80.872 40.6666C81.3514 40.6666 81.731 40.8319 82.0106 41.1615C82.2903 41.4911 82.4301 41.9373 82.4301 42.4988C82.4301 43.1358 82.2892 43.6352 82.0073 43.997C81.7254 44.3588 81.3348 44.5397 80.8343 44.5397C80.4214 44.5397 80.093 44.381 79.8477 44.0636L79.79 43.9881V44.4398H79.2107V39.4059V39.407ZM80.8032 44.0059C81.1251 44.0059 81.3692 43.8849 81.5357 43.6408C81.7021 43.3977 81.7853 43.0437 81.7853 42.5776C81.7853 42.1115 81.7055 41.7797 81.5456 41.5588C81.3858 41.3391 81.1395 41.2281 80.8065 41.2281C80.4736 41.2281 80.2184 41.3524 80.0619 41.601C79.9054 41.8496 79.8277 42.2436 79.8277 42.7829C79.8277 43.1735 79.9121 43.4743 80.0808 43.6874C80.2494 43.9004 80.4903 44.0059 80.8032 44.0059Z" fill="#004A5B"/>
<path id="Vector_10" d="M84.652 44.5397C84.1337 44.5397 83.7264 44.3755 83.4301 44.047C83.1338 43.7185 82.9851 43.2635 82.9851 42.6842C82.9851 42.0683 83.1416 41.5777 83.4556 41.2137C83.7697 40.8497 84.1914 40.6677 84.7208 40.6677C85.2002 40.6677 85.5875 40.8464 85.8816 41.2015C86.1757 41.5578 86.3233 42.0261 86.3233 42.6054L86.3166 42.8251H83.6399C83.6654 43.1902 83.7486 43.4688 83.8896 43.6608C84.0627 43.8938 84.3368 44.0103 84.7108 44.0103C84.9461 44.0103 85.1514 43.9438 85.3267 43.8117C85.5021 43.6796 85.6097 43.5098 85.6485 43.3045H86.2578C86.1668 43.7063 85.9837 44.0126 85.7096 44.2245C85.4355 44.4354 85.0826 44.5408 84.652 44.5408V44.5397ZM85.6807 42.3279C85.6619 41.9872 85.5775 41.7231 85.4266 41.5333C85.2601 41.3236 85.016 41.2182 84.6941 41.2182C84.3723 41.2182 84.1115 41.3391 83.9173 41.5811C83.7642 41.7708 83.672 42.0194 83.6399 42.3279H85.6807Z" fill="#004A5B"/>
<path id="Vector_11" d="M88.4052 44.4375C88.1954 44.4697 88.0423 44.4853 87.9457 44.4853C87.676 44.4853 87.4863 44.4253 87.3753 44.3066C87.2643 44.1878 87.2088 43.9836 87.2088 43.694V41.2803H86.7017V40.7764H87.2088V39.7488H87.8258V40.7764H88.4041V41.2803H87.8258V43.694C87.8258 43.7761 87.858 43.8416 87.9235 43.8893C87.989 43.937 88.0756 43.9615 88.1854 43.9615H88.4041V44.4375H88.4052Z" fill="#004A5B"/>
<path id="Vector_12" d="M90.3541 44.4375C90.1444 44.4697 89.9912 44.4853 89.8947 44.4853C89.625 44.4853 89.4352 44.4253 89.3242 44.3066C89.2133 44.1878 89.1578 43.9836 89.1578 43.694V41.2803H88.6506V40.7764H89.1578V39.7488H89.7748V40.7764H90.353V41.2803H89.7748V43.694C89.7748 43.7761 89.807 43.8416 89.8725 43.8893C89.938 43.937 90.0245 43.9615 90.1344 43.9615H90.353V44.4375H90.3541Z" fill="#004A5B"/>
<path id="Vector_13" d="M92.4491 44.5397C91.9308 44.5397 91.5236 44.3755 91.2272 44.047C90.9309 43.7185 90.7822 43.2635 90.7822 42.6842C90.7822 42.0683 90.9387 41.5777 91.2528 41.2137C91.5668 40.8497 91.9885 40.6677 92.5179 40.6677C92.9973 40.6677 93.3846 40.8464 93.6787 41.2015C93.9728 41.5578 94.1204 42.0261 94.1204 42.6054L94.1137 42.8251H91.437C91.4625 43.1902 91.5457 43.4688 91.6867 43.6608C91.8598 43.8938 92.1339 44.0103 92.5079 44.0103C92.7432 44.0103 92.9485 43.9438 93.1238 43.8117C93.2992 43.6796 93.4068 43.5098 93.4457 43.3045H94.0549C93.9639 43.7063 93.7808 44.0126 93.5067 44.2245C93.2326 44.4354 92.8797 44.5408 92.4491 44.5408V44.5397ZM93.4779 42.3279C93.459 41.9872 93.3746 41.7231 93.2237 41.5333C93.0572 41.3236 92.8131 41.2182 92.4913 41.2182C92.1694 41.2182 91.9086 41.3391 91.7144 41.5811C91.5613 41.7708 91.4692 42.0194 91.437 42.3279H93.4779Z" fill="#004A5B"/>
<path id="Vector_14" d="M94.9429 40.7765H95.5288V41.4035C95.581 41.3058 95.6376 41.216 95.6964 41.1361C95.9295 40.8231 96.2158 40.6666 96.5554 40.6666C96.612 40.6666 96.6708 40.6766 96.7296 40.6977V41.328L96.6031 41.3247C96.269 41.3247 96.0127 41.4246 95.8307 41.6244C95.6498 41.8241 95.5588 42.1093 95.5588 42.4789V44.4409H94.9429V40.7765Z" fill="#004A5B"/>
<path id="Vector_15" d="M100.486 44.4375C100.276 44.4697 100.123 44.4853 100.027 44.4853C99.7568 44.4853 99.5671 44.4253 99.4561 44.3066C99.3451 44.1878 99.2896 43.9836 99.2896 43.694V41.2803H98.7825V40.7764H99.2896V39.7488H99.9067V40.7764H100.485V41.2803H99.9067V43.694C99.9067 43.7761 99.9388 43.8416 100.004 43.8893C100.07 43.937 100.156 43.9615 100.266 43.9615H100.485V44.4375H100.486Z" fill="#004A5B"/>
<path id="Vector_16" d="M101.352 44.0059C101.038 43.6497 100.881 43.1825 100.881 42.6054C100.881 42.0283 101.038 41.5578 101.352 41.2015C101.666 40.8453 102.076 40.6677 102.582 40.6677C103.088 40.6677 103.506 40.8464 103.819 41.2015C104.132 41.5578 104.288 42.0261 104.288 42.6054C104.288 43.1847 104.132 43.6497 103.819 44.0059C103.506 44.3621 103.094 44.5397 102.582 44.5397C102.071 44.5397 101.666 44.361 101.352 44.0059ZM103.356 43.6286C103.548 43.3756 103.643 43.0337 103.643 42.6043C103.643 42.1748 103.548 41.833 103.356 41.5788C103.164 41.3247 102.906 41.1971 102.581 41.1971C102.256 41.1971 102 41.3247 101.809 41.5788C101.618 41.833 101.523 42.1748 101.523 42.6043C101.523 43.0337 101.618 43.3745 101.809 43.6286C102 43.8816 102.257 44.0092 102.581 44.0092C102.905 44.0092 103.164 43.8827 103.356 43.6286Z" fill="#004A5B"/>
<path id="Vector_17" d="M106.331 45.4786C106.685 45.4786 106.955 45.3676 107.139 45.1445C107.324 44.9215 107.417 44.5974 107.417 44.1702V44.0503L107.413 44.0536C107.159 44.3777 106.828 44.5397 106.42 44.5397C105.93 44.5397 105.539 44.3566 105.249 43.9904C104.96 43.6242 104.814 43.1292 104.814 42.5055C104.814 41.9551 104.957 41.5112 105.243 41.1738C105.528 40.8364 105.902 40.6666 106.362 40.6666C106.823 40.6666 107.153 40.8575 107.41 41.2382L107.454 41.3036V40.7765H108.034V44.1702C108.031 44.7883 107.893 45.2466 107.616 45.5429C107.34 45.8393 106.916 45.988 106.342 45.988C105.927 45.988 105.597 45.8925 105.352 45.7005C105.108 45.5085 104.961 45.23 104.911 44.8649H105.541C105.578 45.0613 105.665 45.2122 105.803 45.3188C105.942 45.4253 106.117 45.4786 106.332 45.4786H106.331ZM106.452 41.2282C106.107 41.2282 105.856 41.338 105.698 41.5567C105.539 41.7753 105.459 42.1237 105.459 42.6009C105.459 43.0504 105.546 43.3967 105.718 43.6397C105.89 43.8827 106.135 44.0048 106.452 44.0048C106.751 44.0048 106.993 43.8927 107.175 43.6697C107.357 43.4466 107.449 43.1503 107.449 42.7829C107.449 42.2647 107.366 41.8763 107.2 41.6166C107.035 41.358 106.785 41.2282 106.452 41.2282Z" fill="#004A5B"/>
<path id="Vector_18" d="M110.383 44.5397C109.865 44.5397 109.457 44.3755 109.161 44.047C108.865 43.7185 108.716 43.2635 108.716 42.6842C108.716 42.0683 108.873 41.5777 109.187 41.2137C109.501 40.8497 109.922 40.6677 110.452 40.6677C110.931 40.6677 111.318 40.8464 111.613 41.2015C111.907 41.5578 112.054 42.0261 112.054 42.6054L112.048 42.8251H109.371C109.396 43.1902 109.48 43.4688 109.621 43.6608C109.794 43.8938 110.068 44.0103 110.442 44.0103C110.677 44.0103 110.882 43.9438 111.058 43.8117C111.233 43.6796 111.341 43.5098 111.38 43.3045H111.989C111.898 43.7063 111.715 44.0126 111.441 44.2245C111.166 44.4354 110.813 44.5408 110.383 44.5408V44.5397ZM111.412 42.3279C111.393 41.9872 111.308 41.7231 111.158 41.5333C110.991 41.3236 110.747 41.2182 110.425 41.2182C110.103 41.2182 109.842 41.3391 109.648 41.5811C109.495 41.7708 109.403 42.0194 109.371 42.3279H111.412Z" fill="#004A5B"/>
<path id="Vector_19" d="M114.136 44.4375C113.926 44.4697 113.773 44.4853 113.677 44.4853C113.407 44.4853 113.217 44.4253 113.106 44.3066C112.995 44.1878 112.94 43.9836 112.94 43.694V41.2803H112.433V40.7764H112.94V39.7488H113.557V40.7764H114.135V41.2803H113.557V43.694C113.557 43.7761 113.589 43.8416 113.654 43.8893C113.72 43.937 113.806 43.9615 113.916 43.9615H114.135V44.4375H114.136Z" fill="#004A5B"/>
<path id="Vector_20" d="M114.739 39.407H115.356V41.2736L115.462 41.1371C115.73 40.8242 116.064 40.6677 116.465 40.6677C116.867 40.6677 117.181 40.7776 117.4 40.9962C117.619 41.2148 117.728 41.5266 117.728 41.9306V44.4409H117.111V42.0849C117.111 41.7808 117.053 41.5622 116.937 41.429C116.821 41.2958 116.631 41.2281 116.369 41.2281C116.058 41.2281 115.812 41.3402 115.629 41.5655C115.446 41.7908 115.355 42.0948 115.355 42.4777V44.4398H114.738V39.4059L114.739 39.407Z" fill="#004A5B"/>
<path id="Vector_21" d="M120.132 44.5397C119.614 44.5397 119.207 44.3755 118.911 44.047C118.614 43.7185 118.466 43.2635 118.466 42.6842C118.466 42.0683 118.622 41.5777 118.936 41.2137C119.25 40.8497 119.672 40.6677 120.201 40.6677C120.681 40.6677 121.068 40.8464 121.362 41.2015C121.656 41.5578 121.804 42.0261 121.804 42.6054L121.797 42.8251H119.12C119.146 43.1902 119.229 43.4688 119.37 43.6608C119.543 43.8938 119.817 44.0103 120.191 44.0103C120.427 44.0103 120.632 43.9438 120.807 43.8117C120.983 43.6796 121.09 43.5098 121.129 43.3045H121.738C121.647 43.7063 121.464 44.0126 121.19 44.2245C120.916 44.4354 120.563 44.5408 120.132 44.5408V44.5397ZM121.161 42.3279C121.142 41.9872 121.058 41.7231 120.907 41.5333C120.741 41.3236 120.496 41.2182 120.175 41.2182C119.853 41.2182 119.592 41.3391 119.398 41.5811C119.245 41.7708 119.153 42.0194 119.12 42.3279H121.161Z" fill="#004A5B"/>
<path id="Vector_22" d="M122.625 40.7765H123.211V41.4035C123.263 41.3058 123.319 41.216 123.378 41.1361C123.611 40.8231 123.898 40.6666 124.237 40.6666C124.294 40.6666 124.353 40.6766 124.411 40.6977V41.328L124.285 41.3247C123.951 41.3247 123.695 41.4246 123.513 41.6244C123.332 41.8241 123.241 42.1093 123.241 42.4789V44.4409H122.625V40.7765Z" fill="#004A5B"/>
</g>
<g id="Group_4">
<path id="Vector_23" d="M58.7059 35.6671C58.7059 36.2042 58.5172 36.6559 58.1421 37.021C57.7659 37.3872 57.3087 37.5903 56.7715 37.6336C56.4697 37.6769 55.8149 37.6979 54.805 37.6979C51.2149 37.6979 49.4204 35.9245 49.4204 32.3777V24.4462H48.5504C48.0121 24.4462 47.5671 24.2742 47.212 23.9302C46.858 23.5861 46.6804 23.1456 46.6804 22.6084C46.6804 22.0713 46.858 21.6629 47.212 21.3189C47.5671 20.9749 48.0121 20.8028 48.5504 20.8028H49.4204V18.772C49.4204 18.0417 49.6624 17.4292 50.1462 16.9342C50.6301 16.4403 51.2371 16.1929 51.9685 16.1929C52.6998 16.1929 53.3068 16.4348 53.7896 16.9187C54.2723 17.4025 54.5154 18.0207 54.5154 18.7731V20.804H56.7405C57.2776 20.804 57.7293 20.976 58.0944 21.32C58.4595 21.664 58.6426 22.0935 58.6426 22.6095C58.6426 23.1256 58.4595 23.5884 58.0944 23.9313C57.7282 24.2753 57.2776 24.4473 56.7405 24.4473H54.5154V31.7019C54.5154 32.411 54.6175 32.916 54.8217 33.2167C55.0259 33.5186 55.3965 33.6684 55.9337 33.6684H56.6428C57.201 33.6473 57.6849 33.8348 58.0933 34.2321C58.5017 34.6305 58.7059 35.1077 58.7059 35.6671Z" fill="#004A5B"/>
<path id="Vector_24" d="M69.668 20.5465C70.2906 20.5465 70.8288 20.7773 71.2805 21.2401C71.7322 21.7029 71.9575 22.2555 71.9575 22.9003C71.9575 23.5451 71.7266 24.0989 71.2638 24.5605C70.8011 25.0233 70.2484 25.2541 69.6036 25.2541H69.2496C68.1965 25.2541 67.2931 25.6947 66.5418 26.5759C65.7894 27.4581 65.4132 28.6289 65.4132 30.0905V35.2165C65.4132 35.9689 65.1712 36.5926 64.6885 37.0865C64.2046 37.5814 63.5976 37.8278 62.8662 37.8278C62.1349 37.8278 61.5279 37.5814 61.0451 37.0865C60.5613 36.5926 60.3193 35.9689 60.3193 35.2165V23.0934C60.3193 22.3843 60.5502 21.7928 61.0129 21.32C61.4746 20.8473 62.0606 20.6109 62.7697 20.6109C63.4789 20.6109 64.0704 20.8473 64.5431 21.32C65.0159 21.7928 65.2522 22.3843 65.2522 23.0934V24.2864C65.8537 21.7928 67.1977 20.5465 69.2829 20.5465H69.6702H69.668Z" fill="#004A5B"/>
<path id="Vector_25" d="M85.1927 21.3522C85.6765 20.8583 86.2836 20.6108 87.0138 20.6108C87.744 20.6108 88.3522 20.8528 88.836 21.3366C89.3199 21.8205 89.5618 22.4386 89.5618 23.191V35.3463C89.5618 36.0555 89.331 36.647 88.8682 37.1197C88.4054 37.5925 87.8206 37.8289 87.1114 37.8289C86.4023 37.8289 85.8108 37.5925 85.338 37.1197C84.8653 36.647 84.6289 36.0555 84.6289 35.3463V34.9268C84.1561 35.8946 83.4625 36.6514 82.5492 37.1996C81.6359 37.7479 80.566 38.022 79.3409 38.022C77.4065 38.022 75.8851 37.4582 74.7786 36.3296C73.6711 35.201 73.1184 33.6373 73.1184 31.6386V23.191C73.1184 22.4386 73.3603 21.8205 73.8442 21.3366C74.328 20.8528 74.9351 20.6108 75.6653 20.6108C76.3955 20.6108 77.0037 20.8528 77.4875 21.3366C77.9714 21.8205 78.2133 22.4386 78.2133 23.191V30.4134C78.2133 32.8427 79.2132 34.0568 81.2119 34.0568C82.2007 34.0568 82.9909 33.7072 83.5824 33.0092C84.1728 32.3111 84.4691 31.2513 84.4691 29.833V23.191C84.4691 22.4608 84.711 21.8482 85.1949 21.3533L85.1927 21.3522Z" fill="#004A5B"/>
<path id="Vector_26" d="M102.846 20.4167C104.995 20.4167 106.735 21.239 108.069 22.8837C109.402 24.5284 110.068 26.6403 110.068 29.2194C110.068 31.7985 109.401 33.9104 108.069 35.555C106.736 37.1997 104.995 38.0221 102.846 38.0221C100.373 38.0221 98.5785 37.0332 97.461 35.0556V35.3453C97.461 36.0544 97.2302 36.6459 96.7674 37.1187C96.3046 37.5915 95.7087 37.8278 94.9785 37.8278C94.2482 37.8278 93.6833 37.5915 93.2217 37.1187C92.7589 36.6459 92.5281 36.0544 92.5281 35.3453V17.0641C92.5281 16.3117 92.77 15.6935 93.2539 15.2097C93.7377 14.7258 94.3448 14.4839 95.075 14.4839C95.8052 14.4839 96.4134 14.7314 96.8972 15.2252C97.3811 15.7202 97.6219 16.3328 97.6219 17.063V23.1245C98.7827 21.3189 100.524 20.4167 102.846 20.4167ZM98.4287 32.9426C99.0735 33.8349 99.9868 34.281 101.169 34.281C102.351 34.281 103.275 33.8349 103.942 32.9426C104.608 32.0515 104.942 30.8097 104.942 29.2183C104.942 27.6269 104.608 26.3861 103.942 25.4939C103.275 24.6016 102.351 24.1555 101.169 24.1555C99.9868 24.1555 99.0724 24.6016 98.4287 25.4939C97.7839 26.3861 97.461 27.6269 97.461 29.2183C97.461 30.8097 97.7828 32.0504 98.4287 32.9426Z" fill="#004A5B"/>
<path id="Vector_27" d="M122.739 20.4167C124.889 20.4167 126.629 21.239 127.963 22.8837C129.296 24.5284 129.962 26.6403 129.962 29.2194C129.962 31.7985 129.295 33.9104 127.963 35.555C126.63 37.1997 124.889 38.0221 122.739 38.0221C120.267 38.0221 118.472 37.0332 117.355 35.0556V35.3453C117.355 36.0544 117.124 36.6459 116.661 37.1187C116.198 37.5915 115.602 37.8278 114.872 37.8278C114.142 37.8278 113.577 37.5915 113.115 37.1187C112.653 36.6459 112.422 36.0544 112.422 35.3453V17.0641C112.422 16.3117 112.664 15.6935 113.148 15.2097C113.632 14.7258 114.239 14.4839 114.969 14.4839C115.699 14.4839 116.307 14.7314 116.791 15.2252C117.275 15.7202 117.516 16.3328 117.516 17.063V23.1245C118.677 21.3189 120.418 20.4167 122.739 20.4167ZM118.322 32.9426C118.967 33.8349 119.881 34.281 121.063 34.281C122.244 34.281 123.169 33.8349 123.836 32.9426C124.502 32.0515 124.836 30.8097 124.836 29.2183C124.836 27.6269 124.502 26.3861 123.836 25.4939C123.169 24.6016 122.244 24.1555 121.063 24.1555C119.881 24.1555 118.966 24.6016 118.322 25.4939C117.678 26.3861 117.355 27.6269 117.355 29.2183C117.355 30.8097 117.677 32.0504 118.322 32.9426Z" fill="#004A5B"/>
<path id="Vector_28" d="M132.121 16.5158C132.121 15.8067 132.384 15.2096 132.911 14.7258C133.438 14.2419 134.077 14 134.83 14C135.584 14 136.222 14.2419 136.749 14.7258C137.275 15.2096 137.539 15.8056 137.539 16.5158C137.539 17.2261 137.282 17.8487 136.766 18.3214C136.25 18.7942 135.605 19.0306 134.831 19.0306C134.058 19.0306 133.413 18.7942 132.897 18.3214C132.381 17.8487 132.124 17.2472 132.124 16.5158H132.121ZM136.684 37.0865C136.2 37.5814 135.593 37.8278 134.861 37.8278C134.13 37.8278 133.523 37.5859 133.04 37.102C132.557 36.6182 132.314 36.0011 132.314 35.2476V23.1889C132.314 22.4365 132.556 21.8183 133.04 21.3345C133.524 20.8506 134.131 20.6087 134.861 20.6087C135.592 20.6087 136.2 20.8561 136.684 21.35C137.167 21.8449 137.408 22.4575 137.408 23.1878V35.2465C137.408 35.9778 137.166 36.5904 136.684 37.0843V37.0865Z" fill="#004A5B"/>
</g>
</g>
</g>
</g>
</g>
</g>
</g>
</g>
</g>
</g>
<defs>
<filter id="filter0_d_671_3948" x="0" y="0" width="155.539" height="60" filterUnits="userSpaceOnUse" color-interpolation-filters="sRGB">
<feFlood flood-opacity="0" result="BackgroundImageFix"/>
<feColorMatrix in="SourceAlpha" type="matrix" values="0 0 0 0 0 0 0 0 0 0 0 0 0 0 0 0 0 0 127 0" result="hardAlpha"/>
<feMorphology radius="1" operator="dilate" in="SourceAlpha" result="effect1_dropShadow_671_3948"/>
<feOffset/>
<feGaussianBlur stdDeviation="2.5"/>
<feComposite in2="hardAlpha" operator="out"/>
<feColorMatrix type="matrix" values="0 0 0 0 0 0 0 0 0 0 0 0 0 0 0 0 0 0 0.09 0"/>
<feBlend mode="normal" in2="BackgroundImageFix" result="effect1_dropShadow_671_3948"/>
<feBlend mode="normal" in="SourceGraphic" in2="effect1_dropShadow_671_3948" result="shape"/>
</filter>
<clipPath id="clip0_671_3948">
<rect width="1440" height="112" fill="white" transform="translate(-74 -26)"/>
</clipPath>
</defs>
</svg>
