<svg preserveAspectRatio="none" width="100%" height="100%" overflow="visible" style="display: block;" viewBox="0 0 64.6083 6.58204" fill="none" xmlns="http://www.w3.org/2000/svg">
<g id="Group">
<path id="Vector" d="M1.70348 5.0317C1.49373 5.06388 1.34059 5.07942 1.24404 5.07942C0.974371 5.07942 0.784586 5.01949 0.673609 4.90075C0.562633 4.782 0.507144 4.5778 0.507144 4.28815V1.87441H0V1.37058H0.507144V0.342932H1.12418V1.37058H1.70237V1.87441H1.12418V4.28815C1.12418 4.37028 1.15635 4.43575 1.22183 4.48347C1.2873 4.53119 1.37388 4.55561 1.48374 4.55561H1.70237V5.0317H1.70348Z" fill="#004A5B"/>
<path id="Vector_2" d="M2.39163 1.37057H2.97759V1.99759C3.02975 1.89993 3.08635 1.81004 3.14517 1.73014C3.37822 1.41718 3.66454 1.26071 4.00413 1.26071C4.06073 1.26071 4.11955 1.27069 4.17837 1.29178V1.92212L4.05184 1.9188C3.7178 1.9188 3.46145 2.01868 3.27945 2.21844C3.09855 2.41819 3.00756 2.7034 3.00756 3.07295V5.03502H2.39163V1.37057Z" fill="#004A5B"/>
<path id="Vector_3" d="M5.60741 5.13379C5.24896 5.13379 4.96486 5.03835 4.75512 4.84636C4.54537 4.65437 4.43994 4.3958 4.43994 4.06953C4.43994 3.74325 4.53872 3.47913 4.73626 3.28492C4.9338 3.09071 5.22234 2.96974 5.60077 2.92202L6.43974 2.81548C6.50854 2.80883 6.57291 2.79773 6.63506 2.78108C6.71496 2.76 6.77602 2.71894 6.82041 2.6579C6.8648 2.59686 6.88587 2.51918 6.88587 2.42485V2.39377C6.88587 2.19734 6.81151 2.0442 6.6628 1.93322C6.51409 1.82225 6.3077 1.76676 6.04357 1.76676C5.77945 1.76676 5.59188 1.82557 5.44983 1.94321C5.30667 2.06084 5.2201 2.23619 5.19125 2.46924H4.62306C4.65303 2.0675 4.79398 1.76565 5.04811 1.56367C5.30225 1.36169 5.66512 1.26071 6.13677 1.26071C6.58179 1.26071 6.9214 1.35725 7.15334 1.55035C7.38639 1.74345 7.5029 2.02422 7.5029 2.39488V4.408C7.5029 4.47015 7.52177 4.51898 7.5595 4.55671C7.59723 4.59444 7.6483 4.61331 7.71155 4.61331C7.73042 4.61331 7.75705 4.61109 7.79256 4.60665C7.82808 4.60221 7.86581 4.59555 7.90687 4.58556V5.03058C7.84806 5.05389 7.78478 5.07164 7.71819 5.08496C7.65161 5.09828 7.59612 5.10605 7.55062 5.10605C7.31756 5.10605 7.1489 5.04168 7.04347 4.91406C6.97467 4.82972 6.92583 4.70986 6.89586 4.55449C6.85036 4.6122 6.79821 4.66658 6.73829 4.71874C6.42977 4.99507 6.05354 5.13268 5.60852 5.13268L5.60741 5.13379ZM6.88476 3.58234V3.18504C6.77045 3.23942 6.64394 3.27715 6.50411 3.29824L5.93923 3.38036C5.64292 3.42142 5.42542 3.49022 5.28892 3.58788C5.15131 3.68443 5.08361 3.8165 5.08361 3.98296C5.08361 4.18827 5.1402 4.34697 5.25118 4.45683C5.36216 4.5667 5.52197 4.6233 5.72728 4.6233C6.05133 4.6233 6.32543 4.53563 6.5496 4.35917C6.70275 4.23599 6.80374 4.09616 6.85479 3.9419C6.86367 3.91194 6.87146 3.86532 6.8759 3.80096C6.88255 3.73437 6.88587 3.66224 6.88587 3.58234H6.88476Z" fill="#004A5B"/>
<path id="Vector_4" d="M8.14119 1.37057H8.86143L9.84359 4.37027H9.84136L10.8579 1.37057H11.5382L10.1721 5.03502H9.51066L8.14119 1.37057Z" fill="#004A5B"/>
<path id="Vector_5" d="M13.5414 5.13378C13.0231 5.13378 12.6158 4.96953 12.3195 4.64104C12.0232 4.31255 11.8745 3.85755 11.8745 3.27825C11.8745 2.66233 12.031 2.17181 12.345 1.80781C12.6591 1.4438 13.0808 1.2618 13.6102 1.2618C14.0896 1.2618 14.4769 1.44047 14.771 1.7956C15.0651 2.15183 15.2127 2.62016 15.2127 3.19945L15.206 3.41919H12.5293C12.5548 3.7843 12.638 4.06285 12.779 4.25484C12.9521 4.48789 13.2262 4.60442 13.6002 4.60442C13.8354 4.60442 14.0408 4.53783 14.2161 4.40577C14.3914 4.27371 14.4991 4.10391 14.5379 3.89861H15.1472C15.0562 4.30034 14.8731 4.60664 14.599 4.81861C14.3249 5.02946 13.9719 5.13489 13.5414 5.13489V5.13378ZM14.5701 2.92201C14.5512 2.58131 14.4669 2.31719 14.316 2.12742C14.1495 1.91768 13.9054 1.81225 13.5835 1.81225C13.2617 1.81225 13.0009 1.93321 12.8067 2.17514C12.6536 2.36491 12.5614 2.6135 12.5293 2.92201H14.5701Z" fill="#004A5B"/>
<path id="Vector_6" d="M15.9629 0.00111084H16.5788V5.03501H15.9629V0.00111084Z" fill="#004A5B"/>
<path id="Vector_7" d="M19.4075 0.00111695H20.0245V1.84666C20.2942 1.45158 20.6415 1.25627 21.0688 1.26071C21.5482 1.26071 21.9278 1.42606 22.2074 1.75566C22.4871 2.08526 22.6269 2.53138 22.6269 3.09293C22.6269 3.72993 22.486 4.22933 22.2041 4.59111C21.9222 4.9529 21.5316 5.13379 21.0311 5.13379C20.6182 5.13379 20.2897 4.9751 20.0445 4.6577L19.9868 4.58224V5.03392H19.4075V6.10352e-06V0.00111695ZM21 4.59999C21.3218 4.59999 21.566 4.47903 21.7324 4.23488C21.8989 3.99184 21.9821 3.63783 21.9821 3.17172C21.9821 2.70562 21.9022 2.3738 21.7424 2.15296C21.5826 1.93322 21.3362 1.82225 21.0033 1.82225C20.6704 1.82225 20.4151 1.94654 20.2587 2.19513C20.1022 2.44372 20.0245 2.83768 20.0245 3.37703C20.0245 3.76767 20.1089 4.06842 20.2775 4.28149C20.4462 4.49457 20.687 4.59999 21 4.59999Z" fill="#004A5B"/>
<path id="Vector_8" d="M24.8489 5.13378C24.3306 5.13378 23.9233 4.96953 23.627 4.64104C23.3307 4.31255 23.182 3.85755 23.182 3.27825C23.182 2.66233 23.3385 2.17181 23.6525 1.80781C23.9666 1.4438 24.3883 1.2618 24.9177 1.2618C25.3971 1.2618 25.7844 1.44047 26.0785 1.7956C26.3726 2.15183 26.5202 2.62016 26.5202 3.19945L26.5135 3.41919H23.8368C23.8623 3.7843 23.9455 4.06285 24.0865 4.25484C24.2596 4.48789 24.5337 4.60442 24.9077 4.60442C25.143 4.60442 25.3483 4.53783 25.5236 4.40577C25.699 4.27371 25.8066 4.10391 25.8454 3.89861H26.4547C26.3637 4.30034 26.1806 4.60664 25.9065 4.81861C25.6324 5.02946 25.2795 5.13489 24.8489 5.13489V5.13378ZM25.8776 2.92201C25.8588 2.58131 25.7744 2.31719 25.6235 2.12742C25.457 1.91768 25.2129 1.81225 24.891 1.81225C24.5692 1.81225 24.3084 1.93321 24.1142 2.17514C23.961 2.36491 23.8689 2.6135 23.8368 2.92201H25.8776Z" fill="#004A5B"/>
<path id="Vector_9" d="M28.6019 5.0317C28.3922 5.06388 28.239 5.07942 28.1425 5.07942C27.8728 5.07942 27.683 5.01949 27.572 4.90075C27.4611 4.782 27.4056 4.5778 27.4056 4.28815V1.87441H26.8984V1.37058H27.4056V0.342932H28.0226V1.37058H28.6008V1.87441H28.0226V4.28815C28.0226 4.37028 28.0548 4.43575 28.1203 4.48347C28.1857 4.53119 28.2723 4.55561 28.3822 4.55561H28.6008V5.0317H28.6019Z" fill="#004A5B"/>
<path id="Vector_10" d="M30.5509 5.0317C30.3412 5.06388 30.1881 5.07942 30.0915 5.07942C29.8218 5.07942 29.6321 5.01949 29.5211 4.90075C29.4101 4.782 29.3546 4.5778 29.3546 4.28815V1.87441H28.8475V1.37058H29.3546V0.342932H29.9716V1.37058H30.5498V1.87441H29.9716V4.28815C29.9716 4.37028 30.0038 4.43575 30.0693 4.48347C30.1348 4.53119 30.2213 4.55561 30.3312 4.55561H30.5498V5.0317H30.5509Z" fill="#004A5B"/>
<path id="Vector_11" d="M32.6458 5.13378C32.1276 5.13378 31.7203 4.96953 31.424 4.64104C31.1277 4.31255 30.979 3.85755 30.979 3.27825C30.979 2.66233 31.1354 2.17181 31.4495 1.80781C31.7636 1.4438 32.1853 1.2618 32.7146 1.2618C33.1941 1.2618 33.5814 1.44047 33.8755 1.7956C34.1696 2.15183 34.3172 2.62016 34.3172 3.19945L34.3105 3.41919H31.6337C31.6592 3.7843 31.7425 4.06285 31.8834 4.25484C32.0565 4.48789 32.3307 4.60442 32.7047 4.60442C32.9399 4.60442 33.1452 4.53783 33.3206 4.40577C33.4959 4.27371 33.6036 4.10391 33.6424 3.89861H34.2517C34.1607 4.30034 33.9776 4.60664 33.7035 4.81861C33.4293 5.02946 33.0764 5.13489 32.6458 5.13489V5.13378ZM33.6746 2.92201C33.6557 2.58131 33.5714 2.31719 33.4205 2.12742C33.254 1.91768 33.0098 1.81225 32.688 1.81225C32.3662 1.81225 32.1054 1.93321 31.9112 2.17514C31.758 2.36491 31.6659 2.6135 31.6337 2.92201H33.6746Z" fill="#004A5B"/>
<path id="Vector_12" d="M35.1398 1.37057H35.7257V1.99759C35.7779 1.89993 35.8345 1.81004 35.8933 1.73014C36.1263 1.41718 36.4127 1.26071 36.7522 1.26071C36.8088 1.26071 36.8677 1.27069 36.9265 1.29178V1.92212L36.8 1.9188C36.4659 1.9188 36.2096 2.01868 36.0276 2.21844C35.8467 2.41819 35.7557 2.7034 35.7557 3.07295V5.03502H35.1398V1.37057Z" fill="#004A5B"/>
<path id="Vector_13" d="M40.6828 5.0317C40.473 5.06388 40.3199 5.07942 40.2233 5.07942C39.9537 5.07942 39.7639 5.01949 39.6529 4.90075C39.5419 4.782 39.4864 4.5778 39.4864 4.28815V1.87441H38.9793V1.37058H39.4864V0.342932H40.1035V1.37058H40.6816V1.87441H40.1035V4.28815C40.1035 4.37028 40.1357 4.43575 40.2011 4.48347C40.2666 4.53119 40.3532 4.55561 40.463 4.55561H40.6816V5.0317H40.6828Z" fill="#004A5B"/>
<path id="Vector_14" d="M41.5484 4.59998C41.2344 4.24374 41.0779 3.77653 41.0779 3.19945C41.0779 2.62238 41.2344 2.15183 41.5484 1.7956C41.8625 1.43936 42.2731 1.2618 42.7792 1.2618C43.2852 1.2618 43.7025 1.44047 44.0154 1.7956C44.3284 2.15183 44.4849 2.62016 44.4849 3.19945C44.4849 3.77875 44.3284 4.24374 44.0154 4.59998C43.7025 4.95622 43.2908 5.13378 42.7792 5.13378C42.2676 5.13378 41.8625 4.95511 41.5484 4.59998ZM43.5527 4.22266C43.7447 3.96964 43.8401 3.62782 43.8401 3.19834C43.8401 2.76886 43.7447 2.42706 43.5527 2.17292C43.3607 1.91878 43.1032 1.79116 42.778 1.79116C42.4529 1.79116 42.1965 1.91878 42.0056 2.17292C41.8147 2.42706 41.7193 2.76886 41.7193 3.19834C41.7193 3.62782 41.8147 3.96853 42.0056 4.22266C42.1965 4.47569 42.454 4.60331 42.778 4.60331C43.1021 4.60331 43.3607 4.4768 43.5527 4.22266Z" fill="#004A5B"/>
<path id="Vector_15" d="M46.5281 6.07265C46.8821 6.07265 47.1518 5.96168 47.336 5.73861C47.5213 5.51555 47.6134 5.1915 47.6134 4.76423V4.64438L47.6101 4.64771C47.356 4.97176 47.0253 5.13379 46.6169 5.13379C46.1263 5.13379 45.7357 4.95068 45.446 4.58445C45.1564 4.21823 45.011 3.72327 45.011 3.09958C45.011 2.54914 45.1542 2.10523 45.4394 1.76786C45.7246 1.43049 46.0986 1.26071 46.5591 1.26071C47.0197 1.26071 47.3493 1.45158 47.6068 1.83223L47.6512 1.89771V1.37057H48.2305V4.76423C48.2282 5.38238 48.0895 5.84072 47.8132 6.13702C47.5369 6.43333 47.1129 6.58203 46.5392 6.58203C46.1241 6.58203 45.7934 6.4866 45.5493 6.29461C45.3051 6.10262 45.1575 5.82406 45.1076 5.45895H45.7379C45.7746 5.65538 45.8622 5.80631 45.9998 5.91285C46.1386 6.01939 46.3139 6.07265 46.5292 6.07265H46.5281ZM46.649 1.82225C46.3039 1.82225 46.0531 1.93211 45.8944 2.15073C45.7357 2.36936 45.6558 2.71783 45.6558 3.19503C45.6558 3.64448 45.7424 3.99073 45.9144 4.23377C46.0864 4.47681 46.3317 4.59888 46.649 4.59888C46.9476 4.59888 47.1895 4.4868 47.3715 4.26374C47.5535 4.04067 47.6456 3.74436 47.6456 3.37703C47.6456 2.85876 47.5624 2.47035 47.397 2.21067C47.2317 1.95209 46.982 1.82225 46.649 1.82225Z" fill="#004A5B"/>
<path id="Vector_16" d="M50.5798 5.13378C50.0616 5.13378 49.6543 4.96953 49.358 4.64104C49.0617 4.31255 48.913 3.85755 48.913 3.27825C48.913 2.66233 49.0695 2.17181 49.3835 1.80781C49.6976 1.4438 50.1193 1.2618 50.6487 1.2618C51.1281 1.2618 51.5154 1.44047 51.8095 1.7956C52.1036 2.15183 52.2512 2.62016 52.2512 3.19945L52.2445 3.41919H49.5677C49.5933 3.7843 49.6765 4.06285 49.8174 4.25484C49.9906 4.48789 50.2647 4.60442 50.6387 4.60442C50.8739 4.60442 51.0792 4.53783 51.2546 4.40577C51.4299 4.27371 51.5376 4.10391 51.5764 3.89861H52.1857C52.0947 4.30034 51.9116 4.60664 51.6375 4.81861C51.3633 5.02946 51.0104 5.13489 50.5798 5.13489V5.13378ZM51.6086 2.92201C51.5897 2.58131 51.5054 2.31719 51.3545 2.12742C51.188 1.91768 50.9439 1.81225 50.622 1.81225C50.3002 1.81225 50.0394 1.93321 49.8452 2.17514C49.692 2.36491 49.5999 2.6135 49.5677 2.92201H51.6086Z" fill="#004A5B"/>
<path id="Vector_17" d="M54.3329 5.0317C54.1232 5.06388 53.97 5.07942 53.8735 5.07942C53.6038 5.07942 53.414 5.01949 53.303 4.90075C53.1921 4.782 53.1366 4.5778 53.1366 4.28815V1.87441H52.6294V1.37058H53.1366V0.342932H53.7536V1.37058H54.3318V1.87441H53.7536V4.28815C53.7536 4.37028 53.7858 4.43575 53.8513 4.48347C53.9168 4.53119 54.0033 4.55561 54.1132 4.55561H54.3318V5.0317H54.3329Z" fill="#004A5B"/>
<path id="Vector_18" d="M54.9355 0.00111695H55.5525V1.86775L55.659 1.73125C55.9265 1.41829 56.2605 1.26181 56.6623 1.26181C57.064 1.26181 57.3781 1.37168 57.5967 1.5903C57.8153 1.80893 57.9252 2.12077 57.9252 2.52473V5.03502H57.3082V2.67899C57.3082 2.37491 57.2493 2.15629 57.1339 2.02312C57.0174 1.88994 56.8276 1.82225 56.5657 1.82225C56.255 1.82225 56.0086 1.93433 55.8255 2.15962C55.6424 2.3849 55.5514 2.68897 55.5514 3.07184V5.03392H54.9344V6.10352e-06L54.9355 0.00111695Z" fill="#004A5B"/>
<path id="Vector_19" d="M60.3293 5.13378C59.8111 5.13378 59.4038 4.96953 59.1075 4.64104C58.8112 4.31255 58.6625 3.85755 58.6625 3.27825C58.6625 2.66233 58.8189 2.17181 59.133 1.80781C59.4471 1.4438 59.8688 1.2618 60.3982 1.2618C60.8776 1.2618 61.2649 1.44047 61.559 1.7956C61.8531 2.15183 62.0007 2.62016 62.0007 3.19945L61.994 3.41919H59.3172C59.3428 3.7843 59.426 4.06285 59.5669 4.25484C59.7401 4.48789 60.0142 4.60442 60.3882 4.60442C60.6234 4.60442 60.8287 4.53783 61.0041 4.40577C61.1794 4.27371 61.2871 4.10391 61.3259 3.89861H61.9352C61.8442 4.30034 61.6611 4.60664 61.387 4.81861C61.1128 5.02946 60.7599 5.13489 60.3293 5.13489V5.13378ZM61.3581 2.92201C61.3392 2.58131 61.2549 2.31719 61.104 2.12742C60.9375 1.91768 60.6934 1.81225 60.3715 1.81225C60.0497 1.81225 59.7889 1.93321 59.5947 2.17514C59.4415 2.36491 59.3494 2.6135 59.3172 2.92201H61.3581Z" fill="#004A5B"/>
<path id="Vector_20" d="M62.8215 1.37057H63.4075V1.99759C63.4596 1.89993 63.5162 1.81004 63.575 1.73014C63.8081 1.41718 64.0944 1.26071 64.434 1.26071C64.4906 1.26071 64.5494 1.27069 64.6082 1.29178V1.92212L64.4817 1.9188C64.1477 1.9188 63.8913 2.01868 63.7093 2.21844C63.5284 2.41819 63.4374 2.7034 63.4374 3.07295V5.03502H62.8215V1.37057Z" fill="#004A5B"/>
</g>
</svg>
