<svg preserveAspectRatio="none" width="100%" height="100%" overflow="visible" style="display: block;" viewBox="0 0 24 22.1538" fill="none" xmlns="http://www.w3.org/2000/svg">
<g id="684f6429292bf57f3946e213_social-yt.svg">
<path id="Vector" d="M20.5962 5.5719L20.6008 5.57744L20.6064 5.58298C20.7753 5.7519 20.9414 6.10913 21.0679 6.53652C21.1304 6.75101 21.1806 6.9689 21.2184 7.18913L21.2248 7.22605V7.2279L21.2257 7.23529L21.2322 7.28975L21.2553 7.50021C21.2737 7.68298 21.3005 7.94605 21.3264 8.26082C21.378 8.89405 21.4288 9.72852 21.4288 10.5574V12.1664C21.4288 12.9971 21.378 13.8325 21.3264 14.4648C21.2998 14.7884 21.2684 15.1114 21.2322 15.4341L21.2257 15.4894V15.4959L21.2248 15.4977L21.2184 15.5347C21.1803 15.7549 21.1298 15.9728 21.067 16.1873C20.9414 16.6137 20.7753 16.9719 20.6064 17.1408L20.6008 17.1464L20.5953 17.1519C20.0811 17.691 19.554 17.7454 19.111 17.7916L18.9762 17.8064C17.5168 17.9088 15.6854 17.9633 14.2085 17.9919C13.4107 18.0069 12.6129 18.0168 11.815 18.0214H11.67L11.6331 18.0224H11.5667L11.3885 18.0196C10.4808 18.0101 9.573 17.9959 8.66542 17.9771C7.08604 17.9448 5.34235 17.8941 4.51342 17.8174C4.37681 17.7934 4.24204 17.775 4.10912 17.7574C3.58758 17.6882 3.09188 17.6227 2.64235 17.1528L2.63312 17.1436C2.46604 16.9737 2.30081 16.6156 2.17435 16.1882C2.10829 15.9614 2.05589 15.7308 2.01742 15.4977V15.4959L2.0165 15.4885L2.01004 15.435L1.98696 15.2236C1.9685 15.0408 1.94173 14.7777 1.91588 14.463C1.85105 13.6991 1.81656 12.933 1.8125 12.1664V10.5574C1.8125 9.72944 1.86512 8.89498 1.91773 8.26267C1.94489 7.93821 1.97689 7.61417 2.01373 7.29067L2.02019 7.23713L2.02112 7.2279V7.22421C2.03043 7.1617 2.04182 7.09951 2.05527 7.03775C2.08019 6.90759 2.11988 6.72852 2.17712 6.53467C2.30173 6.10821 2.46788 5.7519 2.63588 5.58298L2.64142 5.57744L2.64696 5.5719C3.16112 5.03282 3.68819 4.97836 4.13127 4.93221L4.26604 4.91836C5.7245 4.81221 7.55496 4.75959 9.03096 4.73282C9.82777 4.71837 10.6248 4.70944 11.4217 4.70605H11.8205L12.3624 4.70882C12.8248 4.71252 13.4719 4.71898 14.2113 4.73282C15.6873 4.75959 17.5168 4.81221 18.9762 4.91744L19.11 4.93221C19.554 4.97836 20.0811 5.03375 20.5962 5.5719Z" stroke="var(--stroke-0, #F3F1EE)" stroke-width="1.61538"/>
<path id="Vector_2" d="M9.42969 14.1191V8.15234L15.1648 11.1459L9.42969 14.1191Z" fill="var(--fill-0, #F3F1EE)"/>
</g>
</svg>
