<svg preserveAspectRatio="none" width="100%" height="100%" overflow="visible" style="display: block;" viewBox="0 0 23.688 23.6976" fill="none" xmlns="http://www.w3.org/2000/svg">
<g id="Group">
<path id="Vector" d="M11.8512 2.1336C15.018 2.1336 15.3924 2.148 16.638 2.2032C17.7948 2.2536 18.42 2.448 18.8364 2.6112C19.3884 2.8236 19.7856 3.0828 20.1972 3.4944C20.6148 3.9108 20.8692 4.3044 21.0816 4.8552C21.2436 5.2728 21.438 5.90159 21.4896 7.05479C21.5448 8.30399 21.5592 8.67959 21.5592 11.8416C21.5592 15.0084 21.5448 15.3816 21.4896 16.6284C21.438 17.7852 21.2436 18.4104 21.0816 18.8268C20.8692 19.3788 20.61 19.776 20.1972 20.1876C19.7808 20.6052 19.3872 20.8596 18.8364 21.072C18.42 21.234 17.7912 21.4284 16.638 21.48C15.3876 21.5352 15.0132 21.5484 11.85 21.5484C8.6844 21.5484 8.31 21.5352 7.0644 21.48C5.9076 21.4284 5.2824 21.234 4.866 21.072C4.35157 20.8828 3.88615 20.5806 3.504 20.1876C3.1111 19.8061 2.80922 19.341 2.6208 18.8268C2.4576 18.4104 2.2632 17.7804 2.2128 16.6284C2.1576 15.378 2.1432 15.0036 2.1432 11.8404C2.1432 8.67479 2.1576 8.30039 2.2128 7.05479C2.2632 5.89679 2.4576 5.2728 2.6208 4.8552C2.8332 4.3044 3.0924 3.9072 3.504 3.4944C3.9216 3.078 4.314 2.8224 4.866 2.61C5.2824 2.448 5.9112 2.25359 7.0644 2.20199C8.31 2.14799 8.6844 2.1336 11.8512 2.1336ZM11.8512 0C8.634 0 8.2308 0.0132 6.9672 0.0684C5.7072 0.1248 4.8432 0.3276 4.092 0.6204C3.30043 0.917437 2.5836 1.3844 1.992 1.9884C1.38745 2.57979 0.919342 3.29608 0.6204 4.0872C0.3288 4.842 0.1248 5.7012 0.0684 6.9612C0.0156 8.2308 0 8.63279 0 11.8512C0 15.0672 0.0144 15.4704 0.0696 16.7352C0.1248 17.994 0.3288 18.8592 0.6204 19.6092C0.91783 20.4018 1.38564 21.1195 1.9908 21.7116C2.6484 22.368 3.3108 22.776 4.0872 23.0772C4.8432 23.3688 5.7036 23.5716 6.9624 23.628C8.226 23.6832 8.6292 23.6976 11.8464 23.6976C15.0636 23.6976 15.4668 23.6832 16.7304 23.628C17.9904 23.5716 18.8544 23.3688 19.6056 23.076C20.3832 22.776 21.0456 22.368 21.702 21.7116C22.3596 21.054 22.7676 20.3916 23.0676 19.614C23.3592 18.8592 23.5632 17.9988 23.6196 16.7388C23.6748 15.4752 23.688 15.072 23.688 11.8548C23.688 8.63879 23.6748 8.23559 23.6184 6.9708C23.5632 5.712 23.3592 4.84679 23.0676 4.09679C22.7821 3.30023 22.3183 2.57947 21.7116 1.9896C21.1201 1.3874 20.4042 0.921738 19.614 0.6252C18.8604 0.3324 18 0.1296 16.74 0.0732C15.4716 0.0132 15.0684 0.0012 11.8512 0.0012V0Z" fill="var(--fill-0, #F3F1EE)"/>
<path id="Vector_2" d="M11.8517 5.76281C10.6474 5.76257 9.47001 6.1195 8.46852 6.78846C7.46704 7.45741 6.68644 8.40834 6.22543 9.52097C5.76444 10.6336 5.64376 11.8579 5.87866 13.0392C6.11356 14.2204 6.69349 15.3054 7.5451 16.1571C8.3967 17.0087 9.48173 17.5885 10.6629 17.8235C11.8442 18.0583 13.0685 17.9377 14.1811 17.4767C15.2938 17.0157 16.2448 16.2351 16.9137 15.2337C17.5827 14.2321 17.9395 13.0547 17.9393 11.8504C17.9393 8.49041 15.2129 5.76281 11.8517 5.76281ZM11.8517 15.7996C10.8043 15.7996 9.79984 15.3835 9.05922 14.6429C8.31861 13.9023 7.90253 12.8977 7.90253 11.8504C7.90253 10.803 8.31861 9.79852 9.05922 9.0579C9.79984 8.31728 10.8043 7.90121 11.8517 7.90121C12.8992 7.90121 13.9036 8.31728 14.6442 9.0579C15.3849 9.79852 15.8009 10.803 15.8009 11.8504C15.8009 12.8977 15.3849 13.9023 14.6442 14.6429C13.9036 15.3835 12.8992 15.7996 11.8517 15.7996ZM19.6013 5.52161C19.6013 5.89875 19.4515 6.26044 19.1848 6.52711C18.9181 6.79379 18.5565 6.94361 18.1793 6.94361C17.8021 6.94361 17.4405 6.79379 17.1738 6.52711C16.9072 6.26044 16.7573 5.89875 16.7573 5.52161C16.7573 5.14447 16.9072 4.78278 17.1738 4.51611C17.4405 4.24943 17.8021 4.09961 18.1793 4.09961C18.5565 4.09961 18.9181 4.24943 19.1848 4.51611C19.4515 4.78278 19.6013 5.14447 19.6013 5.52161Z" fill="var(--fill-0, #F3F1EE)"/>
</g>
</svg>
