<svg preserveAspectRatio="none" width="913" height="241" overflow="visible" style="display: block;" viewBox="0 0 913.008 241.389" fill="none" xmlns="http://www.w3.org/2000/svg">
<g id="Group">
<path id="Vector" d="M120.839 217.725C120.839 223.122 118.943 227.661 115.174 231.33C111.394 235.01 106.799 237.05 101.402 237.485C98.3688 237.92 91.7894 238.132 81.6414 238.132C45.5658 238.132 27.5335 220.312 27.5335 184.671V104.97H18.7905C13.382 104.97 8.91024 103.242 5.34171 99.7847C1.78434 96.3277 2.79145e-05 91.9005 2.79145e-05 86.5031C2.79145e-05 81.1057 1.78434 77.0019 5.34171 73.5449C8.91024 70.0878 13.382 68.3593 18.7905 68.3593H27.5335V47.9518C27.5335 40.614 29.9646 34.4583 34.8268 29.4847C39.6889 24.5222 45.7888 22.0354 53.1377 22.0354C60.4866 22.0354 66.5865 24.4664 71.4375 29.3285C76.2884 34.1907 78.7307 40.4021 78.7307 47.963V68.3705H101.09C106.487 68.3705 111.026 70.099 114.695 73.556C118.364 77.013 120.204 81.3287 120.204 86.5142C120.204 91.6998 118.364 96.35 114.695 99.7959C111.015 103.253 106.487 104.981 101.09 104.981H78.7307V177.88C78.7307 185.006 79.7567 190.08 81.8086 193.102C83.8605 196.135 87.5851 197.64 92.9825 197.64H100.108C105.718 197.429 110.58 199.313 114.684 203.306C118.787 207.309 120.839 212.104 120.839 217.725Z" fill="#00647C"/>
<path id="Vector_2" d="M230.994 65.7847C237.25 65.7847 242.659 68.1042 247.198 72.7544C251.736 77.4047 254 82.9582 254 89.4373C254 95.9164 251.68 101.481 247.03 106.12C242.38 110.77 236.826 113.09 230.347 113.09H226.79C216.207 113.09 207.13 117.517 199.58 126.372C192.019 135.237 188.239 147.002 188.239 161.689V213.198C188.239 220.759 185.808 227.026 180.957 231.989C176.094 236.963 169.995 239.438 162.646 239.438C155.297 239.438 149.197 236.963 144.346 231.989C139.484 227.026 137.053 220.759 137.053 213.198V91.3777C137.053 84.2518 139.372 78.308 144.022 73.5574C148.661 68.8068 154.55 66.4314 161.676 66.4314C168.801 66.4314 174.745 68.8068 179.496 73.5574C184.246 78.308 186.622 84.2518 186.622 91.3777V103.366C192.666 78.308 206.171 65.7847 227.125 65.7847H231.016H230.994Z" fill="#00647C"/>
<path id="Vector_3" d="M386.996 73.8793C391.858 68.9168 397.958 66.43 405.296 66.43C412.634 66.43 418.745 68.8611 423.607 73.7232C428.469 78.5853 430.9 84.7968 430.9 92.3576V214.502C430.9 221.628 428.58 227.571 423.93 232.322C419.28 237.073 413.403 239.448 406.277 239.448C399.151 239.448 393.207 237.073 388.457 232.322C383.706 227.571 381.331 221.628 381.331 214.502V210.286C376.58 220.011 369.611 227.616 360.433 233.125C351.255 238.634 340.505 241.388 328.193 241.388C308.756 241.388 293.467 235.723 282.349 224.382C271.219 213.041 265.666 197.328 265.666 177.244V92.3576C265.666 84.7968 268.097 78.5853 272.959 73.7232C277.821 68.8611 283.921 66.43 291.259 66.43C298.597 66.43 304.708 68.8611 309.57 73.7232C314.432 78.5853 316.863 84.7968 316.863 92.3576V164.933C316.863 189.344 326.911 201.543 346.995 201.543C356.931 201.543 364.871 198.031 370.815 191.016C376.747 184.002 379.725 173.352 379.725 159.1V92.3576C379.725 85.0198 382.156 78.8641 387.018 73.8905L386.996 73.8793Z" fill="#00647C"/>
<path id="Vector_4" d="M564.384 64.4791C585.984 64.4791 603.47 72.7425 616.875 89.2693C630.268 105.796 636.959 127.018 636.959 152.934C636.959 178.851 630.257 200.072 616.875 216.599C603.481 233.126 585.984 241.389 564.384 241.389C539.538 241.389 521.506 231.453 510.276 211.581V214.491C510.276 221.617 507.956 227.561 503.306 232.312C498.656 237.062 492.668 239.438 485.33 239.438C477.992 239.438 472.316 237.062 467.677 232.312C463.026 227.561 460.707 221.617 460.707 214.491V30.79C460.707 23.2292 463.138 17.0177 468 12.1556C472.862 7.29346 478.962 4.86239 486.3 4.86239C493.638 4.86239 499.749 7.34921 504.611 12.3117C509.473 17.2853 511.893 23.441 511.893 30.7788V91.6892C523.557 73.5454 541.054 64.4791 564.384 64.4791ZM520 190.348C526.479 199.314 535.657 203.797 547.534 203.797C559.41 203.797 568.7 199.314 575.402 190.348C582.093 181.393 585.449 168.914 585.449 152.923C585.449 136.931 582.093 124.464 575.402 115.498C568.7 106.532 559.41 102.049 547.534 102.049C535.657 102.049 526.468 106.532 520 115.498C513.521 124.464 510.276 136.931 510.276 152.923C510.276 168.914 513.51 181.382 520 190.348Z" fill="#00647C"/>
<path id="Vector_5" d="M764.289 64.4791C785.89 64.4791 803.376 72.7425 816.78 89.2693C830.174 105.796 836.865 127.018 836.865 152.934C836.865 178.851 830.162 200.072 816.78 216.599C803.387 233.126 785.89 241.389 764.289 241.389C739.444 241.389 721.411 231.453 710.182 211.581V214.491C710.182 221.617 707.862 227.561 703.212 232.312C698.562 237.062 692.573 239.438 685.235 239.438C677.898 239.438 672.221 237.062 667.582 232.312C662.932 227.561 660.613 221.617 660.613 214.491V30.79C660.613 23.2292 663.044 17.0177 667.906 12.1556C672.768 7.29346 678.868 4.86239 686.206 4.86239C693.543 4.86239 699.654 7.34921 704.516 12.3117C709.379 17.2853 711.799 23.441 711.799 30.7788V91.6892C723.463 73.5454 740.96 64.4791 764.289 64.4791ZM719.906 190.348C726.385 199.314 735.563 203.797 747.439 203.797C759.316 203.797 768.605 199.314 775.307 190.348C781.998 181.393 785.355 168.914 785.355 152.923C785.355 136.931 781.998 124.464 775.307 115.498C768.605 106.532 759.316 102.049 747.439 102.049C735.563 102.049 726.374 106.532 719.906 115.498C713.427 124.464 710.182 136.931 710.182 152.923C710.182 168.914 713.416 181.382 719.906 190.348Z" fill="#00647C"/>
<path id="Vector_6" d="M858.565 25.2808C858.565 18.1549 861.208 12.1553 866.505 7.29319C871.791 2.43107 878.215 0 885.787 0C893.358 0 899.771 2.43107 905.068 7.29319C910.354 12.1553 913.008 18.1438 913.008 25.2808C913.008 32.4179 910.421 38.6739 905.235 43.4246C900.05 48.1752 893.57 50.5505 885.798 50.5505C878.025 50.5505 871.546 48.1752 866.36 43.4246C861.175 38.6739 858.588 32.6298 858.588 25.2808H858.565ZM904.41 231.988C899.548 236.962 893.448 239.437 886.099 239.437C878.75 239.437 872.65 237.006 867.799 232.144C862.948 227.282 860.506 221.082 860.506 213.51V92.3357C860.506 84.7749 862.937 78.5634 867.799 73.7013C872.661 68.8392 878.761 66.4081 886.099 66.4081C893.437 66.4081 899.548 68.8949 904.41 73.8574C909.272 78.8311 911.692 84.9868 911.692 92.3246V213.498C911.692 220.847 909.261 227.003 904.41 231.966V231.988Z" fill="#00647C"/>
</g>
</svg>
