<svg preserveAspectRatio="none" width="96" height="56" overflow="visible" style="display: block;" viewBox="0 0 96.0041 55.6224" fill="none" xmlns="http://www.w3.org/2000/svg">
<g id="Group">
<g id="Group_2">
<path id="Vector" d="M77.0786 24.405C75.7339 26.0877 75.8321 27.713 75.3548 29.3384C74.9348 30.9501 74.332 32.491 73.5328 33.8654C72.6928 35.2099 71.6399 36.3608 70.3798 37.1598C69.1334 38.0161 67.6469 38.2943 66.1031 38.4497C64.5184 38.5888 62.9065 38.3788 61.3354 38.0843C59.7644 37.6916 58.2234 37.1598 56.7369 36.4453C53.933 35.1281 51.2546 33.2355 48.999 31.1465V24.9941H49.1817C49.3072 24.9805 49.419 24.9532 49.5308 24.9232C50.6246 24.5578 60.1435 21.2088 60.8581 15.1955C61.0954 13.1502 60.1435 11.1458 58.1252 9.37858C54.5931 6.29421 48.1998 4.45885 44.4277 5.42698C40.5301 6.44965 34.8241 10.1504 33.0022 13.6002C32.3721 14.8056 32.2439 15.8991 32.5958 16.8809C33.7031 19.9653 40.3473 23.9442 46.1951 24.8277V31.2201C44.2613 33.2818 41.9484 35.229 39.48 36.6716C36.8861 38.2425 34.0413 39.3497 31.082 39.5869L29.9883 39.6851L28.8809 39.6715C28.139 39.6851 27.3944 39.5733 26.6525 39.4751C25.1797 39.2515 23.7368 38.8724 22.504 38.1988C21.2575 37.5389 20.2047 36.6007 19.5038 35.409C19.1546 34.8063 18.9146 34.1463 18.6201 33.4891C18.2982 32.8019 18.0036 32.1146 17.5536 31.2747C16.4053 32.8319 16.6563 34.8772 17.5127 36.4617C18.3391 38.1143 19.6865 39.4751 21.2275 40.4133C21.9994 40.9178 22.8122 41.2259 23.6387 41.5777C24.4787 41.8014 25.3215 42.1232 26.1616 42.2377C27.018 42.3932 27.8581 42.5459 28.7282 42.5731L30.0456 42.644L31.3493 42.5595C32.1485 42.5022 32.9613 42.3904 33.7468 42.2377C34.7287 44.8312 39.0463 54.7961 47.4579 55.5815C47.7525 55.6088 48.0198 55.6224 48.298 55.6224C56.6387 55.6224 60.8445 43.7513 61.6573 41.185C63.1983 41.4087 64.7694 41.5341 66.3268 41.3814C68.2333 41.1987 70.2653 40.6669 71.8936 39.4751C73.5492 38.3406 74.8529 36.7835 75.7339 35.1008C76.604 33.4182 77.1631 31.6237 77.5286 29.8456C77.8232 28.0648 78.3851 26.2022 77.0813 24.4078L77.0786 24.405ZM41.4438 20.4943C41.5011 20.4098 41.5693 20.3253 41.6129 20.2407C41.9784 19.4144 41.261 18.2936 40.0146 17.7318C38.8499 17.2136 37.6607 17.3663 37.1971 18.0399C36.1606 17.2545 35.446 16.5127 35.2333 15.9237C35.1623 15.7273 35.2605 15.3483 35.4869 14.9146C36.777 12.463 41.6402 9.05678 45.1314 8.1432C45.6223 8.01775 46.1678 7.96048 46.7706 7.96048C49.7708 7.96048 53.9194 9.43312 56.2896 11.4785C57.1869 12.2775 58.2234 13.4965 58.0706 14.871C57.9452 15.921 57.2987 16.9164 56.3878 17.8136C55.8259 17.3936 54.8167 17.35 53.8376 17.7863C52.5911 18.3617 51.8737 19.4689 52.2529 20.2953C52.2938 20.4071 52.3647 20.5053 52.4492 20.5898C51.0609 21.3179 49.7299 21.8797 48.8189 22.2015C46.4787 22.2861 43.8003 21.5416 41.4438 20.4916V20.4943ZM57.4106 44.3076C57.1733 44.8121 56.9196 45.3303 56.6251 45.8484C54.7185 49.3937 51.7319 53.1517 47.7225 52.7862C44.3568 52.4781 41.7356 50.1382 39.8727 47.6129C39.4391 47.0511 39.0599 46.492 38.7245 45.9302C37.5898 44.1221 36.8452 42.3986 36.4661 41.4741C38.078 40.9287 39.6191 40.1842 41.0783 39.3306C42.5375 38.447 43.8958 37.438 45.1586 36.3308C46.0696 35.5317 46.8961 34.719 47.6952 33.8218C49.9945 36.0226 52.5611 37.7898 55.4059 39.2188C56.5405 39.7506 57.7188 40.1569 58.9243 40.5223C58.6707 41.2805 58.1661 42.6959 57.4106 44.3076Z" fill="#09424A"/>
<path id="Vector_2" d="M58.0706 14.8737C57.9452 15.9237 57.2987 16.9191 56.3878 17.8163C55.8259 17.3963 54.8167 17.3527 53.8376 17.789C52.5911 18.3645 51.8737 19.4717 52.2529 20.298C52.2938 20.4098 52.3647 20.508 52.4492 20.5925C51.0609 21.3207 49.7299 21.8825 48.8189 22.2043C46.4787 22.2888 43.8003 21.5443 41.4438 20.4943C41.5011 20.4098 41.5693 20.3253 41.6129 20.2407C41.9784 19.4144 41.261 18.2936 40.0146 17.7318C38.8499 17.2136 37.6607 17.3663 37.1971 18.0399C36.1606 17.2545 35.446 16.5127 35.2333 15.9237C35.1624 15.7273 35.2605 15.3483 35.4869 14.9146C36.777 12.463 41.6402 9.05678 45.1314 8.1432C45.6223 8.01775 46.1678 7.96048 46.7706 7.96048C49.7708 7.96048 53.9194 9.43313 56.2896 11.4785C57.1869 12.2775 58.2234 13.4965 58.0706 14.871V14.8737Z" fill="#673E30"/>
<path id="Vector_3" d="M56.625 45.8511C54.7185 49.3964 51.7319 53.1544 47.7225 52.789C44.3568 52.4808 41.7356 50.1409 39.8727 47.6156C41.8202 45.6112 44.4004 44.2367 47.1497 43.7758C50.4173 43.244 53.8785 43.9994 56.6278 45.8511H56.625Z" fill="#F58D90"/>
<path id="Vector_4" d="M57.4106 44.3076C57.1733 44.8121 56.9196 45.3303 56.625 45.8484C53.8785 43.9994 50.4145 43.2413 47.147 43.7731C44.4004 44.2367 41.8202 45.6084 39.87 47.6129C39.4363 47.0511 39.0572 46.492 38.7217 45.9302C40.1946 44.1358 42.1284 42.7204 44.3022 41.8641C47.2615 40.6996 50.6245 40.6178 53.6521 41.6268C54.7022 41.9923 55.7413 42.4831 56.5678 43.2522C56.8896 43.5604 57.1842 43.9122 57.4078 44.3021L57.4106 44.3076Z" fill="#D55A64"/>
<path id="Vector_5" d="M58.9243 40.5251C58.6707 41.2832 58.1661 42.6986 57.4106 44.3103C57.1869 43.9176 56.8923 43.5685 56.5705 43.2604C55.7441 42.4886 54.7049 41.9977 53.6548 41.635C50.6273 40.626 47.2615 40.7105 44.3049 41.8723C42.1311 42.7286 40.1973 44.144 38.7245 45.9384C37.5898 44.1303 36.8452 42.4068 36.4661 41.4823C38.078 40.9369 39.6191 40.1924 41.0783 39.3388C42.5375 38.4552 43.8958 37.4462 45.1586 36.3389C46.0696 35.5399 46.8961 34.7272 47.6952 33.83C49.9945 36.0308 52.5611 37.7979 55.4059 39.227C56.5405 39.7588 57.7188 40.1651 58.9243 40.5305V40.5251Z" fill="#09424A"/>
<path id="Vector_6" d="M47.897 9.06496C46.8606 8.87679 45.786 8.81134 44.755 9.03496C43.6721 9.2695 42.6575 9.8231 41.8775 10.6112C41.5665 10.9249 41.2747 11.3503 41.4001 11.773C41.4792 12.0403 41.7165 12.2393 41.9784 12.3321C42.2402 12.4248 42.5266 12.4275 42.8021 12.4057C44.7331 12.2612 46.5797 11.1021 48.4862 11.443C48.8708 11.5112 49.2444 11.6421 49.6345 11.683C50.4309 11.7675 51.5219 11.0803 50.8782 10.2158C50.2891 9.42222 48.7944 9.23132 47.897 9.06769V9.06496Z" fill="#F5EFE7"/>
<g id="Group_3">
<path id="Vector_7" d="M20.1666 24.6723C22.6295 24.765 24.1187 25.2395 24.1678 25.0786C24.2114 24.9832 22.7713 24.2523 20.2184 23.9687C17.6873 23.666 14.0406 23.9987 10.4485 25.5941C6.85907 27.1867 4.14248 29.5457 2.43507 31.4028C0.716742 33.2709 -0.087871 34.6236 0.00759158 34.6945C0.130329 34.7899 1.12859 33.6009 2.93693 31.9019C4.73708 30.2111 7.42367 28.0294 10.8521 26.5104C14.2779 24.9914 17.72 24.5632 20.1666 24.6778V24.6723Z" fill="#09424A"/>
<path id="Vector_8" d="M25.1497 28.7194C25.1933 28.6294 23.7969 28.013 21.443 28.2803C19.1028 28.5148 16.0344 29.8129 13.2469 31.9674C10.4212 34.0945 8.38102 36.6171 7.16183 38.5588C5.94263 40.5169 5.4735 41.8695 5.58533 41.9214C5.84172 42.0986 8.34556 36.8898 13.8497 32.7637C16.5499 30.6802 19.3783 29.3739 21.5494 28.9784C23.7205 28.5503 25.117 28.8912 25.147 28.7194H25.1497Z" fill="#09424A"/>
<path id="Vector_9" d="M18.5764 37.8143C15.6089 42.0195 15.1343 46.282 15.3825 46.2793C15.6825 46.3584 16.5662 42.3822 19.3974 38.387C22.174 34.3536 25.6025 32.1528 25.4252 31.8992C25.3433 31.6646 21.5058 33.5791 18.5791 37.8143H18.5764Z" fill="#09424A"/>
</g>
<g id="Group_4">
<path id="Vector_10" d="M75.8376 20.3171C73.3746 20.4098 71.8854 20.8843 71.8363 20.7234C71.7927 20.628 73.2328 19.8971 75.7857 19.6135C78.3169 19.3108 81.9635 19.6435 85.5556 21.2388C89.145 22.8315 91.8616 25.1905 93.569 27.0476C95.2874 28.9157 96.092 30.2684 95.9965 30.3393C95.8738 30.4347 94.8755 29.2457 93.0672 27.5467C91.267 25.8559 88.5805 23.6742 85.152 22.1552C81.7262 20.6362 78.2841 20.208 75.8376 20.3225V20.3171Z" fill="#09424A"/>
<path id="Vector_11" d="M70.8544 24.3641C70.8108 24.2741 72.2073 23.6578 74.5611 23.9251C76.9013 24.1596 79.9697 25.4577 82.7572 27.6121C85.5829 29.7393 87.6231 32.2619 88.8423 34.2036C90.0615 36.1617 90.5306 37.5143 90.4188 37.5661C90.1624 37.7434 87.6586 32.5346 82.1545 28.4085C79.4542 26.3249 76.6258 25.0186 74.4547 24.6232C72.2836 24.195 70.8872 24.5359 70.8572 24.3641H70.8544Z" fill="#09424A"/>
<path id="Vector_12" d="M77.4277 33.4591C80.3952 37.6643 80.8698 41.9268 80.6216 41.9241C80.3216 42.0032 79.4379 38.027 76.6067 34.0318C73.8301 29.9984 70.4017 27.7976 70.5789 27.544C70.6608 27.3094 74.4984 29.2239 77.425 33.4591H77.4277Z" fill="#09424A"/>
</g>
</g>
<path id="Vector_13" d="M24.7478 10.7069C25.9272 7.30909 24.1285 3.59859 20.7301 2.41931C17.3318 1.24004 13.6208 3.03857 12.4414 6.43643C11.2619 9.83429 13.0607 13.5448 16.459 14.7241C19.8574 15.9033 23.5684 14.1048 24.7478 10.7069Z" fill="#09424A"/>
<path id="Vector_14" d="M20.5675 9.05678C21.7666 9.05678 22.7386 8.08489 22.7386 6.88599C22.7386 5.6871 21.7666 4.7152 20.5675 4.7152C19.3684 4.7152 18.3964 5.6871 18.3964 6.88599C18.3964 8.08489 19.3684 9.05678 20.5675 9.05678Z" fill="#F5EFE7"/>
<path id="Vector_15" d="M75.1121 13.0247C78.7092 13.0247 81.6253 10.1091 81.6253 6.51237C81.6253 2.91569 78.7092 0 75.1121 0C71.5149 0 68.5988 2.91569 68.5988 6.51237C68.5988 10.1091 71.5149 13.0247 75.1121 13.0247Z" fill="#09424A"/>
<path id="Vector_16" d="M73.1401 6.9978C74.3391 6.9978 75.3112 6.02591 75.3112 4.82701C75.3112 3.62812 74.3391 2.65622 73.1401 2.65622C71.941 2.65622 70.969 3.62812 70.969 4.82701C70.969 6.02591 71.941 6.9978 73.1401 6.9978Z" fill="#F5EFE7"/>
</g>
</svg>
