<svg preserveAspectRatio="none" width="261" height="335" overflow="visible" style="display: block;" viewBox="0 0 261.007 334.99" fill="none" xmlns="http://www.w3.org/2000/svg">
<g id="Group">
<g id="Group_2">
<path id="Vector" d="M260.989 189.809L260.948 189.277C260.64 186.487 260.288 183.741 259.028 180.91C258.662 180.209 258.27 179.481 257.528 178.808C257.206 178.459 256.715 178.178 256.197 177.951C255.943 177.826 255.468 177.741 255.13 177.769C254.765 177.769 254.429 177.853 254.176 177.951C253.096 178.371 252.536 178.96 251.975 179.508C251.429 180.054 250.979 180.629 250.545 181.205C248.862 183.476 247.572 186.013 246.255 188.186C243.41 192.798 240.759 197.437 237.633 201.685C234.535 205.932 230.847 209.703 226.672 212.856C222.479 215.981 217.84 218.52 212.835 219.709C208.335 220.803 203.624 220.955 198.971 220.481C199.337 219.235 199.686 217.986 199.994 216.709C200.204 215.798 200.4 214.86 200.556 213.906C200.681 212.981 200.809 212.057 200.738 210.947C200.962 210.371 201.202 209.799 201.399 209.21C201.666 208.411 201.903 207.612 202.099 206.772C202.198 206.352 202.269 205.902 202.337 205.468L202.533 204.374C202.814 202.959 203.261 201.5 203.78 200.071C205.883 194.295 208.771 188.674 211.602 183.013C213.102 180.098 214.237 176.972 214.938 173.705C215.246 172.053 215.554 170.424 215.26 168.406C215.161 167.888 215.022 167.326 214.6 166.71C214.221 166.08 213.255 165.491 212.469 165.518C212.246 165.518 212.09 165.518 211.951 165.532C212.022 165.055 212.107 164.594 212.12 164.073C212.12 163.345 212.079 162.559 211.771 161.689C211.616 161.256 211.365 160.806 211.013 160.386C210.817 160.176 210.607 159.993 210.383 159.81C210.146 159.671 209.878 159.557 209.625 159.445C208.602 159.052 207.424 159.208 206.597 159.628C206.316 159.753 206.079 159.909 205.839 160.075C205.839 159.879 205.853 159.696 205.839 159.5C205.754 158.42 205.629 157.242 204.816 156.022C204.647 155.714 204.298 155.447 204.031 155.183C203.709 154.959 203.316 154.79 202.964 154.637C202.334 154.468 201.688 154.37 201.044 154.413C198.436 154.596 196.571 156.208 195.226 157.833C194.735 158.45 194.329 159.096 193.963 159.753C193.598 159.151 193.137 158.521 192.379 158.057C191.593 157.566 190.611 157.413 189.771 157.525C188.004 157.861 186.954 158.9 186.07 159.824C185.186 160.806 184.485 161.856 183.896 162.949C182.704 165.123 181.851 167.436 181.373 169.874C181.106 171.052 181.024 172.383 180.967 173.531C180.953 173.994 180.896 174.455 180.811 174.932C177.628 170.994 170.422 164.49 158.8 166.759C154.215 162.652 143.982 152.393 142.875 146.532C144.402 143.898 151.327 130.764 147.009 115.007C143.085 100.708 137.714 97.6811 135.513 97.0375C132.682 90.7869 128.531 80.7648 128.503 78.3813C129.807 76.8241 130.593 75.0023 131.084 73.2243C131.602 71.2607 131.883 69.2863 131.995 67.3091C132.248 63.3575 131.855 59.4441 131.321 55.6479C131.084 53.7417 130.647 51.8491 130.312 49.9564C129.946 48.0638 129.638 46.1575 129.147 44.2922L128.798 42.8632L128.713 42.5277V42.4868C128.741 42.4296 128.967 42.1923 129.316 41.9114C129.736 41.576 130.156 41.1533 130.494 40.7633C131.924 39.1516 132.892 37.1471 133.312 35.0445C133.536 34.0082 133.62 32.9283 133.549 31.8483C133.522 31.3165 133.465 30.7684 133.353 30.2366C133.197 29.7048 133.116 29.1294 132.862 28.6112C132.005 26.4241 130.044 24.7987 128.04 24.0269C126.008 23.2006 123.891 22.977 121.829 23.0588C121.311 23.0861 120.793 23.1297 120.288 23.1979C120.078 23.2252 119.868 23.2688 119.672 23.3097C119.56 23.1706 119.448 23.0152 119.323 22.8461C119.069 22.497 118.818 22.1043 118.581 21.7252C114.318 15.082 108.263 9.68499 101.297 6.05518C94.3277 2.41174 86.5053 0.630931 78.7673 0.210954C71.084 -0.222659 63.3188 -0.0563045 55.649 1.35907C47.9957 2.80172 40.5796 5.60521 33.9763 9.7968C27.6949 13.7484 22.199 18.979 17.925 25.0469C17.014 24.766 16.1303 24.556 15.1784 24.4169C13.8474 24.2342 12.4591 24.2069 11.0299 24.5015C9.61429 24.796 8.18508 25.5105 7.11863 26.6041C6.86497 26.885 6.6004 27.1659 6.37675 27.474L5.80125 28.4122C5.46576 29.0558 5.19847 29.6584 4.98845 30.3184C4.07747 32.9119 4.0911 35.8545 5.04573 38.4616C5.87216 40.6897 7.34501 42.7241 9.43428 44.0822C8.81786 47.0111 8.38419 49.8992 8.04598 52.8417C7.68049 56.1497 7.45684 59.485 7.48411 62.8366C7.54139 66.1719 7.70777 69.5508 8.3951 72.8861C9.02515 75.9705 9.99341 79.0385 11.5781 81.8992C10.0071 86.0336 8.89969 90.2115 8.08689 94.5013C7.28773 99.0283 6.85406 103.667 7.11863 108.322C7.24409 109.487 7.2741 110.649 7.46775 111.813L7.74868 113.537L7.78959 113.79C7.74868 113.875 7.6914 113.973 7.63413 114.058L7.21409 114.731L6.9468 115.151C6.84861 115.307 6.83497 115.361 6.80769 115.432L6.72314 115.628L6.04945 117.226L4.67479 120.409C2.93737 124.685 1.75909 129.168 0.959932 133.698C0.174412 138.239 -0.106521 142.88 0.0353092 147.476C0.174412 152.074 0.777189 156.712 2.08093 161.199C3.34377 165.698 5.5585 169.988 8.34873 173.716C11.0271 177.305 14.2238 180.43 17.6713 183.193C18.9478 189.822 20.6579 196.215 22.7036 202.564C24.8201 209.081 27.1767 215.545 29.9642 221.809C35.4601 234.367 42.2297 246.408 50.5023 257.398C51.4705 258.827 52.6052 260.117 53.6989 261.448L56.9801 265.429C58.0465 266.79 59.2521 268.009 60.444 269.255L64.0197 272.983L65.8144 274.832L67.7482 276.556L71.6186 280.003L73.566 281.713L74.0433 282.147L74.6188 282.567L75.6989 283.308C77.1281 284.29 78.5873 285.215 80.0438 286.112C91.8048 293.232 104.717 298.867 118.597 300.759C118.654 300.773 118.723 300.773 118.793 300.773H118.892C120.7 300.746 122.816 301.152 124.499 301.978C126.196 302.818 127.625 304.081 128.468 305.75C128.847 306.492 129.338 307.713 129.843 308.706C130.347 309.742 130.893 310.724 131.441 311.72C132.562 313.667 133.713 315.589 134.932 317.466C137.357 321.221 139.937 324.853 142.741 328.385C144.214 330.122 145.586 331.848 147.59 333.474C148.894 334.428 150.198 334.848 151.881 334.72C152.721 334.622 153.591 334.273 154.265 333.725C154.376 333.613 154.488 333.515 154.6 333.403C155.216 333.752 155.847 334.076 156.534 334.341C157.767 334.832 159.226 335.154 160.811 334.903C161.596 334.734 162.423 334.469 163.164 333.836C163.893 333.22 164.384 332.337 164.58 331.51C164.705 330.978 164.735 330.46 164.735 329.969C165.409 330.068 166.11 330.109 166.896 330.054C167.793 329.942 168.971 329.661 169.855 328.639C170.302 328.093 170.583 327.392 170.627 326.817C170.684 326.509 170.684 326.241 170.654 325.991C170.654 325.71 170.613 325.472 170.57 325.249C170.177 323.454 169.421 322.194 168.677 320.918C168.396 320.454 168.101 320.021 167.807 319.587C168.128 319.475 168.45 319.35 168.789 319.181C169.138 318.985 169.517 318.717 169.869 318.341C170.204 317.948 170.499 317.416 170.61 316.855C170.793 315.707 170.54 315.074 170.357 314.444C169.517 312.033 168.213 310.252 166.838 308.488C165.423 306.751 163.879 305.166 162.185 303.737C161.288 302.965 160.587 302.447 159.9 301.733C159.212 301.059 158.582 300.317 157.979 299.532C156.801 297.975 155.819 296.238 155.02 294.416C154.627 293.491 154.278 292.567 153.984 291.612L153.76 290.884C153.662 290.576 153.564 290.309 153.479 290.044C153.283 289.499 153.073 288.978 152.849 288.473C152.134 286.834 151.278 285.25 150.214 283.75C153.018 284.156 155.808 284.424 158.639 284.59C164.108 284.912 169.588 284.759 175.043 284.17C180.481 283.567 185.879 282.558 191.138 280.988C193.802 280.314 196.353 279.291 198.946 278.408C200.209 277.89 201.469 277.314 202.732 276.782C203.995 276.251 205.255 275.689 206.447 275.031C226.003 265.067 241.97 248.622 251.685 229.028C256.494 219.215 259.704 208.55 260.643 197.6L260.853 193.48L260.951 191.418L260.992 190.382C261.019 190.242 261.005 189.948 260.992 189.806L260.989 189.809ZM257.907 190.442L257.85 191.423L257.751 193.4L257.541 197.325C257.176 201.361 256.505 205.37 255.537 209.311C255.046 211.288 254.5 213.235 253.867 215.168C253.251 217.102 252.564 218.995 251.822 220.874C251.808 220.874 251.808 220.887 251.808 220.901C250.897 223.172 249.888 225.414 248.808 227.615C239.387 246.538 223.783 262.476 204.928 272.007C203.78 272.651 202.571 273.172 201.352 273.69C200.133 274.194 198.941 274.74 197.722 275.231C195.213 276.071 192.758 277.052 190.194 277.699C185.132 279.199 179.903 280.15 174.661 280.712C169.405 281.288 164.105 281.44 158.82 281.146C154.363 280.878 149.832 280.333 145.528 279.379C148.78 276.758 152.426 273.267 156.182 269.441C161.102 264.423 165.464 259.727 168.393 256.195C169.852 254.526 171.183 253.111 171.912 252.004C172.67 250.896 172.893 250.155 172.724 250.056C172.542 249.931 172.01 250.406 171.041 251.221C170.087 252.047 168.63 253.141 166.863 254.725C163.514 257.935 158.956 262.309 154.063 267.327C150.544 270.93 147.039 274.532 143.365 277.993C142.356 278.931 141.333 279.872 140.294 280.797C139.79 281.244 139.299 281.68 138.781 282.114C138.513 282.337 138.262 282.561 137.995 282.774C137.883 282.872 137.223 283.292 137.223 283.404C136.776 283.753 136.326 284.105 135.906 284.47C135.821 284.541 135.75 284.626 135.78 284.724C135.821 284.795 135.919 284.822 136.004 284.822C136.468 284.849 136.929 284.71 137.365 284.541C138.205 284.219 138.991 283.799 139.776 283.349C140.169 283.126 140.562 282.886 140.954 282.648C141.093 282.564 141.865 281.961 141.95 282.005C142.062 282.062 142.174 282.13 142.299 282.174C142.776 282.299 143.267 282.384 143.758 282.509C144.094 282.635 144.446 282.804 144.781 283.014C145.468 283.477 146.126 284.121 146.728 284.822C147.92 286.281 148.902 288.018 149.701 289.84C149.898 290.303 150.081 290.751 150.247 291.214L150.471 291.874L150.694 292.646C151.03 293.726 151.423 294.762 151.873 295.785C152.503 297.214 153.234 298.602 154.087 299.919C154.453 300.495 154.829 301.054 155.252 301.602C155.926 302.499 156.667 303.369 157.494 304.168C158.266 304.981 159.261 305.739 159.976 306.342C161.503 307.632 162.919 309.088 164.182 310.631C165.387 312.159 166.579 313.898 167.111 315.497C167.223 315.75 167.25 316.028 167.267 316.14C167.239 316.154 167.196 316.181 167.141 316.211C166.707 316.478 165.668 316.658 164.899 316.675H164.858C164.719 316.59 164.591 316.478 164.438 316.394C163.991 316.157 163.554 315.903 163.093 315.693C162.63 315.469 162.155 315.259 161.678 315.077C161.173 314.907 160.628 314.796 159.968 314.88C160.107 315.524 160.388 316.001 160.726 316.421C161.048 316.814 161.413 317.193 161.762 317.556C162.128 317.921 162.504 318.256 162.883 318.592C163.023 318.717 163.178 318.815 163.331 318.927C163.372 319.066 163.429 319.222 163.514 319.361C164.313 320.468 165.098 321.575 165.772 322.683C166.432 323.776 167.062 324.968 167.245 325.892C167.316 326.271 167.258 326.454 167.258 326.468C167.187 326.552 166.937 326.664 166.544 326.705C165.633 326.803 164.302 326.536 163.249 326.16C163.164 326.132 163.08 326.132 162.982 326.102C162.589 325.753 162.183 325.415 161.749 325.121C161.021 324.63 160.29 324.152 159.212 323.986C159.283 325.08 159.69 325.851 160.123 326.607C160.391 327.07 160.699 327.518 161.021 327.938C161.034 328.077 161.021 328.205 161.078 328.33C161.332 329.072 161.471 330.139 161.315 330.7C161.146 331.262 160.966 331.401 160.208 331.598C159.534 331.709 158.637 331.584 157.756 331.218C156.886 330.897 155.92 330.335 155.206 329.789L154.996 329.86C154.477 329.061 153.861 328.347 153.174 327.673C152.767 327.294 152.361 326.901 151.897 326.566C151.42 326.231 150.874 325.963 150.102 325.865C149.991 326.637 150.13 327.24 150.326 327.785C150.536 328.317 150.817 328.794 151.084 329.285C151.433 329.901 151.826 330.463 152.249 331.008C152.208 331.049 152.178 331.107 152.137 331.134C151.954 331.273 151.758 331.358 151.493 331.388C150.989 331.472 150.034 331.205 149.601 330.798C148.171 329.65 146.712 327.924 145.354 326.285C142.662 322.906 140.112 319.334 137.741 315.66C136.549 313.838 135.428 311.973 134.348 310.094C133.83 309.156 133.298 308.202 132.835 307.25C132.344 306.282 132.035 305.442 131.405 304.209C131.111 303.62 130.745 303.075 130.325 302.54V302.526C129.177 301.026 127.62 299.821 125.95 299.008C124.829 298.447 123.637 298.084 122.432 297.83C121.284 297.593 120.217 297.465 118.954 297.481C105.791 295.7 93.2013 290.262 81.7621 283.338C80.3329 282.468 78.9174 281.557 77.5427 280.619L76.5199 279.919L76.0562 279.583L75.5925 279.163L73.7133 277.494L69.9575 274.172L68.0783 272.503L66.3272 270.695L62.836 267.052C61.6577 265.847 60.4822 264.655 59.443 263.324L56.2191 259.427C55.1526 258.137 54.0453 256.861 53.0934 255.475C44.99 244.711 38.3185 232.895 32.9071 220.53C30.1442 214.378 27.8313 208.026 25.7284 201.606C23.9064 195.959 22.3354 190.169 21.1571 184.393C21.5362 184.45 21.929 184.491 22.3054 184.518C23.5955 184.616 24.9701 184.42 26.1184 183.719C25.4747 183.482 24.9128 183.313 24.351 183.089L22.7527 182.473C22.2208 182.263 21.7162 181.996 21.2116 181.786L20.3143 181.366C20.2434 181.281 20.1888 181.183 20.0906 181.098C13.1928 175.729 7.41865 168.693 5.08937 160.326C3.87018 156.162 3.29467 151.79 3.15557 147.388C3.01647 142.973 3.28103 138.572 4.02564 134.227C4.09656 133.821 4.18111 133.401 4.2493 132.995C5.00754 129.084 6.05763 125.214 7.57139 121.543L8.8615 118.516L9.50519 117.003L9.61702 116.708L9.79976 116.414L10.2907 115.656C10.4598 115.361 10.6126 115.151 10.8226 114.562C10.8362 114.477 10.8635 114.393 10.8799 114.267C10.9071 114.112 10.9208 113.902 10.8799 113.594L10.8526 113.398L10.7817 112.991L10.528 111.393C10.3453 110.327 10.3043 109.233 10.1925 108.156C9.79976 100.406 11.2017 92.4287 13.711 85.0136C14.1447 85.6027 14.5674 86.1781 15.0284 86.7372C16.0948 88.068 17.2431 89.3307 18.4759 90.5088C19.6951 91.7005 21.0125 92.8214 22.4717 93.7895C23.7755 94.6731 25.3329 95.4858 27.043 95.3467C27.1985 95.3331 27.3376 95.3194 27.4903 95.2894C26.1866 93.9722 25.0519 93.0314 23.8164 92.0223C22.6108 90.986 21.5171 89.8215 20.437 88.6162C19.3706 87.4108 18.3477 86.1645 17.3522 84.8882L14.7038 81.4111C14.6629 81.272 14.6193 81.1302 14.5347 80.9911C12.9637 78.3976 11.9981 75.3978 11.3817 72.3298C10.8062 69.6108 10.6098 66.7937 10.5416 63.9629C10.528 63.5839 10.5144 63.2048 10.5144 62.8285C10.5007 60.8813 10.5716 58.9178 10.7107 56.9542C10.7953 55.7079 10.9071 54.4453 11.0462 53.199C11.4117 50.0028 11.9027 46.7657 12.5873 43.6813V43.6677C12.6009 43.6104 12.5873 43.5559 12.6009 43.4986C12.9091 42.8823 13.1628 42.2223 13.3428 41.5351C13.4546 41.0442 13.5801 40.5806 13.5964 40.0624C13.6237 39.6424 13.5828 39.1925 13.4137 38.6743C13.0482 38.7998 12.74 38.9552 12.4891 39.1516C11.9272 39.517 11.5645 40.0079 11.1853 40.4688C10.989 40.736 10.8062 41.0006 10.6398 41.2678C9.407 40.3433 8.41146 38.9552 7.86324 37.4417C7.14863 35.4781 7.13499 33.2937 7.82232 31.2893C8.20145 30.2802 8.60784 29.3121 9.25153 28.7094C9.32245 28.6385 9.39064 28.5703 9.47519 28.5131C10.0643 27.9813 10.8198 27.6158 11.6626 27.4467C13.5692 27.0268 15.953 27.4604 17.9004 28.2185L17.9577 28.2322C18.5878 28.4858 19.3324 28.2594 19.7251 27.6704C23.86 21.518 29.285 16.2737 35.5665 12.3085C41.8179 8.32688 48.8985 5.6352 56.2027 4.26346C63.5206 2.88899 71.0922 2.72264 78.6064 3.14261C86.0498 3.53532 93.4113 5.21795 99.9709 8.63777C106.503 12.0303 112.196 17.1028 116.164 23.2852C116.431 23.6915 116.696 24.1115 117.004 24.5315C117.143 24.7414 117.299 24.9514 117.481 25.1751C117.692 25.3987 117.817 25.6087 118.322 25.9741C118.406 26.0314 118.477 26.0723 118.575 26.1132C118.589 26.1268 118.673 26.1705 118.813 26.2114C118.938 26.2386 119.08 26.2686 119.205 26.2686C119.344 26.2823 119.473 26.2686 119.598 26.255L119.655 26.2414L119.74 26.2277L120.048 26.1568C120.258 26.1295 120.468 26.0859 120.692 26.0586C121.112 25.9877 121.548 25.9605 121.982 25.9332C123.706 25.8623 125.459 26.0723 126.973 26.6913C127.661 26.9586 128.277 27.3213 128.795 27.7576C129.439 28.2894 129.93 28.9494 130.238 29.7048C130.505 30.3784 130.685 31.1775 130.715 32.0174C130.773 32.8437 130.702 33.6864 130.533 34.4991C130.211 36.1245 129.453 37.668 128.372 38.9007C128.078 39.2225 127.827 39.4897 127.502 39.757C127.363 39.8824 127.194 40.0242 127.011 40.177C126.94 40.1061 126.872 40.0379 126.788 39.9806C126.493 39.7434 126.199 39.4897 125.833 39.307C125.623 39.2088 125.386 39.1243 125.132 39.0834C124.949 39.0261 124.753 39.0125 124.543 39.0261C124.584 39.2634 124.614 39.4734 124.641 39.6697C124.682 39.8661 124.726 40.0624 124.767 40.2315C124.851 40.5806 124.99 40.8915 125.102 41.2133C125.326 41.8732 125.62 42.5168 125.929 43.0623C125.942 43.0759 125.942 43.0895 125.956 43.1032C125.969 43.1604 125.969 43.2286 125.983 43.2859L126.068 43.635L126.403 44.9794C126.867 46.8012 127.175 48.6529 127.538 50.5019C127.636 51.0336 127.734 51.5818 127.832 52.1136C128.1 53.4172 128.364 54.7207 128.52 56.0516C129.052 59.7659 129.417 63.4939 129.193 67.1537C129.095 68.4982 128.94 69.8726 128.675 71.2035C128.591 71.6371 128.492 72.0734 128.367 72.507C127.903 74.2033 127.189 75.7441 126.109 76.9086L126.095 76.9359C126.024 77.0068 125.956 77.105 125.899 77.2031C125.184 78.4931 124.3 79.8239 123.417 81.1002C122.56 82.3901 121.608 83.6228 120.67 84.8718C119.702 86.1045 118.693 87.2826 117.629 88.4471C116.579 89.6252 115.414 90.6888 114.222 91.796C114.391 91.7251 114.571 91.6705 114.727 91.586C114.74 91.586 114.74 91.5724 114.754 91.5724H114.768C116.085 91.0106 117.334 90.2824 118.51 89.4697C119.841 88.5153 121.117 87.4789 122.282 86.3172C123.46 85.1827 124.524 83.9337 125.549 82.6574C125.83 82.292 126.081 81.9293 126.349 81.5638C127.974 87.1571 132.251 96.6312 133.26 98.8756C133.47 99.3228 133.947 99.6337 134.438 99.6883C134.496 99.6883 140.101 100.446 144.306 115.765C145.779 121.148 145.82 126.264 145.217 130.679C144.012 139.313 140.352 145.299 140.24 145.482C139.986 145.831 139.637 146.295 139.329 146.701C139.007 147.135 138.641 147.528 138.279 147.934C137.913 148.327 137.52 148.706 137.087 149.041C136.667 149.42 136.247 149.769 135.783 150.372C136.47 150.666 137.185 150.639 137.815 150.456C138.431 150.26 139.061 150.023 139.623 149.671C140.002 149.475 140.338 149.224 140.673 148.957C141.402 150.89 142.665 152.979 144.178 155.068C147.656 159.903 152.492 164.711 155.268 167.332C155.211 167.346 155.156 167.359 155.099 167.389C154.595 167.613 154.09 167.853 153.656 168.229C153.209 168.595 152.816 169.069 152.59 169.729C153.264 169.953 153.782 170.01 154.3 170.051C154.805 170.108 155.268 170.051 155.729 170.051C156.207 170.024 156.654 169.98 157.118 169.939C157.328 169.912 157.565 169.882 157.791 169.841C158.015 169.814 158.225 169.77 158.421 169.702L158.449 169.688C158.533 169.688 158.618 169.688 158.702 169.661C171.824 166.732 178.539 176.192 179.969 178.535C178.918 182.307 177.615 186.204 176.856 190.212C175.902 194.865 175.566 199.646 175.735 204.383C175.763 205.154 176.409 205.771 177.178 205.743C177.459 205.73 177.724 205.645 177.937 205.49C178.021 205.433 178.092 205.378 178.147 205.307C178.4 205.04 178.553 204.691 178.539 204.298V204.271C178.384 199.744 178.695 195.203 179.606 190.758C180.348 186.776 181.668 182.964 182.775 178.9C182.816 178.802 182.846 178.718 182.86 178.606C182.972 178.199 183.097 177.793 183.209 177.373C183.462 176.181 183.713 174.976 183.771 173.659C183.828 172.511 183.896 171.515 184.136 170.422C184.543 168.305 185.314 166.203 186.351 164.31C186.855 163.356 187.472 162.475 188.146 161.73C188.789 160.989 189.618 160.4 190.164 160.315C190.472 160.301 190.682 160.329 190.892 160.454C191.116 160.566 191.356 160.86 191.566 161.226C191.959 161.913 192.21 162.908 192.324 163.792C192.324 163.806 192.31 163.819 192.31 163.833C191.904 165.194 191.637 166.609 191.399 168.025C191.288 168.783 191.162 169.524 191.064 170.266C190.993 171.038 191.007 171.78 191.162 172.734C192.073 172.342 192.621 171.613 193.028 170.926C193.434 170.212 193.729 169.467 194.01 168.725C194.555 167.253 194.978 165.753 195.131 164.185C195.188 164.002 195.243 163.819 195.313 163.653C195.777 162.18 196.478 160.779 197.416 159.603C198.453 158.3 199.885 157.291 201.188 157.22C201.524 157.206 201.832 157.261 202.127 157.332C202.198 157.402 202.266 157.402 202.35 157.443C202.391 157.542 202.49 157.528 202.533 157.667C202.814 158.046 203.01 158.859 203.051 159.671C203.079 160.091 203.065 160.541 203.038 160.989C202.98 162.279 202.757 163.637 202.462 164.899C201.999 165.837 201.663 166.819 201.396 167.842C201.24 168.374 201.142 168.922 201.017 169.467C200.932 170.013 200.918 170.602 201.213 171.333C201.955 171.052 202.378 170.632 202.713 170.198C203.021 169.734 203.343 169.274 203.624 168.81C204.213 167.872 204.718 166.917 205.083 165.895C205.602 164.97 206.275 163.975 206.963 163.26C207.298 162.895 207.677 162.63 207.945 162.502C208.239 162.377 208.365 162.39 208.52 162.431C208.632 162.472 208.689 162.489 208.828 162.81C208.954 163.105 209.025 163.582 209.038 164.087C209.066 165.082 208.913 166.274 208.659 167.31L207.186 170.828C206.933 171.444 206.641 172.033 206.499 172.707C206.387 173.394 206.33 174.095 206.556 174.949C207.369 174.6 207.874 174.109 208.337 173.588C208.785 173.056 209.066 172.453 209.387 171.878L211.098 168.695C211.237 168.638 211.392 168.57 211.588 168.526C211.714 168.499 211.856 168.469 211.995 168.455C212.052 168.455 212.093 168.442 212.15 168.442C212.178 168.513 212.235 168.695 212.276 168.919C212.431 170.054 212.178 171.611 211.842 173.026C211.128 175.941 209.977 178.786 208.591 181.507C205.773 187.172 202.746 192.792 200.586 198.958C200.068 200.516 199.59 202.097 199.282 203.794L199.086 205.026C199.028 205.375 199.001 205.727 198.916 206.076C198.761 206.777 198.567 207.492 198.341 208.206C197.416 211.08 196.14 213.925 194.724 216.701C194.037 218.062 193.251 219.532 192.537 220.751C191.877 221.817 190.786 222.714 189.621 223.202C188.443 223.707 187.055 223.68 185.625 223.328C184.237 222.979 182.906 222.221 181.504 221.493C181.463 221.479 181.433 221.452 181.392 221.435C181.433 221.476 181.463 221.533 181.504 221.574C182.472 222.793 183.58 223.972 185.05 224.743C186.536 225.542 188.484 226.02 190.336 225.471C192.201 224.994 193.729 223.832 194.863 222.303C195.297 221.602 195.69 220.958 196.069 220.312C195.971 220.62 195.886 220.942 195.788 221.236C195.761 221.321 195.731 221.405 195.717 221.49C195.717 221.503 195.731 221.517 195.731 221.547C195.423 222.823 195.071 224.195 194.694 225.515C194.302 226.86 193.895 228.193 193.404 229.483C192.9 230.759 192.354 232.033 191.694 233.211C190.966 234.389 190.251 235.398 189.76 237.094C191.541 236.969 192.747 235.777 193.672 234.545C194.021 234.111 194.332 233.647 194.64 233.17V233.156L194.653 233.143C195.172 232.33 195.635 231.487 196.055 230.62C196.715 229.232 197.234 227.817 197.654 226.358C197.935 225.335 198.158 224.312 198.314 223.26C203.346 223.822 208.506 223.707 213.511 222.518C219.007 221.228 224.012 218.482 228.428 215.201C232.844 211.879 236.769 207.898 240.023 203.455C243.304 199.027 246.01 194.317 248.827 189.79C249.599 188.571 250.202 187.393 250.873 186.272C251.546 185.137 252.247 184.03 252.989 183.021C253.368 182.53 253.761 182.053 254.154 181.633C254.533 181.24 254.98 180.918 255.177 180.848C255.261 180.888 255.359 180.918 255.471 181.058C255.739 181.281 256.017 181.758 256.27 182.236C257.209 184.338 257.631 187.016 257.869 189.552L257.91 190.03C257.923 190.212 257.923 190.253 257.91 190.45L257.907 190.442Z" fill="#09424A"/>
<path id="Vector_2" d="M203.049 159.661C203.076 160.081 203.062 160.531 203.035 160.978C202.432 160.656 201.745 160.487 201.071 160.473C199.418 160.446 197.834 161.231 196.585 162.322C196.121 162.729 195.687 163.162 195.308 163.639C195.772 162.167 196.473 160.765 197.411 159.59C198.447 158.286 199.879 157.277 201.183 157.206C201.519 157.193 201.827 157.247 202.121 157.318C202.192 157.389 202.26 157.389 202.345 157.43C202.386 157.528 202.484 157.514 202.528 157.653C202.809 158.032 203.005 158.845 203.046 159.658L203.049 159.661Z" fill="#FF4B55"/>
<path id="Vector_3" d="M251.808 220.901C250.897 223.173 249.888 225.414 248.808 227.615C239.387 246.539 223.783 262.476 204.928 272.007C203.78 272.651 202.571 273.172 201.352 273.69C200.133 274.194 198.941 274.74 197.722 275.231C195.213 276.071 192.758 277.052 190.194 277.699C185.132 279.199 179.903 280.15 174.661 280.712C169.405 281.288 164.105 281.44 158.82 281.146C154.363 280.879 149.832 280.333 145.528 279.379C148.78 276.758 152.426 273.267 156.182 269.441C161.103 264.423 165.464 259.727 168.393 256.195C169.852 254.526 171.183 253.111 171.912 252.004C172.67 250.897 172.894 250.155 172.724 250.057C172.542 249.931 172.01 250.406 171.042 251.221C170.087 252.047 168.63 253.141 166.863 254.725C163.514 257.935 158.956 262.31 154.063 267.327C150.544 270.93 147.04 274.532 143.366 277.993C142.356 278.931 141.334 279.872 140.294 280.797C139.79 281.244 139.299 281.68 138.781 282.114C138.513 282.338 138.262 282.561 137.995 282.774C137.883 282.872 137.223 283.292 137.223 283.404C136.776 283.753 136.326 284.105 135.906 284.47C135.821 284.541 135.75 284.626 135.78 284.724C135.821 284.795 135.919 284.822 136.004 284.822C136.468 284.849 136.929 284.71 137.365 284.541C138.205 284.219 138.991 283.799 139.776 283.349C140.169 283.126 140.562 282.886 140.954 282.648C141.094 282.564 141.865 281.961 141.95 282.005C142.062 282.062 142.174 282.13 142.299 282.174C142.776 282.299 143.267 282.384 143.758 282.509C144.094 282.635 144.446 282.804 144.781 283.014C145.468 283.477 146.126 284.121 146.729 284.822C147.921 286.281 148.902 288.018 149.702 289.84C149.898 290.303 150.081 290.751 150.247 291.214L150.471 291.874L150.694 292.646C151.03 293.726 151.423 294.762 151.873 295.785C152.503 297.214 153.234 298.602 154.087 299.919C153.119 298.839 152.293 297.593 151.537 296.388C149.644 293.361 147.612 290.053 144.277 288.79C141.222 287.655 137.619 288.621 135.15 290.753C132.682 292.897 131.253 296.052 130.664 299.262C130.467 300.342 130.369 301.436 130.314 302.529C129.166 301.029 127.609 299.824 125.94 299.011C124.819 298.449 123.627 298.087 122.421 297.833C121.273 297.596 120.206 297.468 118.944 297.484C105.781 295.703 93.1905 290.265 81.7513 283.341C80.3221 282.471 78.9065 281.56 77.5319 280.622L76.5091 279.921L76.0454 279.586L75.5817 279.166L73.7025 277.497L69.9467 274.175L68.0674 272.506L66.3164 270.698L62.8252 267.055C61.6469 265.849 60.4714 264.658 59.4322 263.327L56.2083 259.43C55.1418 258.14 54.0345 256.863 53.0826 255.478C44.9792 244.714 38.3077 232.898 32.8963 220.533C30.1334 214.38 27.8204 208.029 25.7175 201.609C23.8956 195.961 22.3245 190.172 21.1462 184.396C21.5254 184.453 21.9181 184.494 22.2945 184.521C23.5846 184.619 24.9593 184.423 26.1076 183.722C25.4639 183.485 24.902 183.316 24.3402 183.092L22.7418 182.476C22.21 182.266 21.7054 181.998 21.2008 181.788L20.3034 181.368C20.2325 181.284 20.178 181.186 20.0798 181.101C13.1819 175.732 7.40783 168.696 5.07854 160.329C3.85935 156.164 3.28384 151.793 3.14474 147.391C3.00564 142.976 3.27021 138.574 4.01481 134.23C4.08573 133.824 4.17028 133.404 4.23847 132.997C4.47576 139.993 5.89406 146.944 8.37336 153.475C10.7845 159.824 13.6456 164.998 20.1343 167.689C27.7741 170.872 35.752 169.203 42.7753 165.319C45.4101 163.86 48.1158 162.431 51.0615 161.872C52.8698 161.523 54.8036 161.564 56.5574 162.096C56.9911 162.461 57.3975 162.854 57.7766 163.244C58.0139 163.454 58.2403 163.691 58.4776 163.931C58.2539 164.1 58.0302 164.28 57.8039 164.408C57.242 164.758 56.6256 164.984 55.9683 165.096C55.3082 165.235 54.6072 165.221 53.9063 165.109C53.5571 165.052 53.1917 164.998 52.8398 164.886L51.5933 164.55C47.8076 163.612 43.91 164.662 40.8115 166.541C40.026 167.018 39.2978 167.577 38.5968 168.18C38.2613 168.488 37.9095 168.796 37.6013 169.162C37.2931 169.456 36.9412 169.961 36.7312 170.198C35.8911 171.264 34.5028 172.118 33.0872 172.805C31.658 173.493 30.1006 174.011 28.5023 174.403C26.904 174.837 25.3057 174.782 23.6801 175.988C25.4475 177.024 27.1986 176.55 28.9087 176.296C30.6325 175.974 32.329 175.538 33.9982 174.853C35.092 174.406 36.1993 173.872 37.2221 173.103C37.3067 173.959 37.4458 175.205 37.6694 176.776C36.393 177.602 35.1329 178.429 33.8564 179.244C32.2717 180.28 30.8425 181.472 29.5115 182.819C26.5112 205.471 52.8398 240.934 52.8398 240.934C88.8128 289.897 122.808 288.536 122.808 288.536C127.688 288.34 131.585 284.331 134.01 280.085C136.421 275.839 137.935 271.045 140.963 267.218C144.427 262.817 149.527 260.111 154.126 256.929C166.435 248.407 180.312 236.156 181.491 221.591C182.459 222.81 183.566 223.988 185.036 224.76C186.523 225.559 188.47 226.036 190.322 225.488C192.188 225.011 193.715 223.849 194.85 222.319C195.284 221.618 195.676 220.975 196.055 220.328C195.957 220.636 195.873 220.958 195.775 221.253C195.747 221.337 195.717 221.422 195.704 221.506C195.704 221.52 195.717 221.534 195.717 221.564C195.409 222.84 195.057 224.212 194.681 225.532C194.288 226.876 193.882 228.21 193.391 229.5C192.886 230.776 192.341 232.049 191.681 233.227C190.952 234.406 190.238 235.415 189.747 237.111C191.528 236.985 192.733 235.794 193.658 234.561C194.007 234.127 194.318 233.664 194.626 233.187C193.295 237.223 191.978 241.232 190.658 245.254C189.998 247.245 189.354 249.418 190.069 251.379C191.119 254.254 194.64 255.402 197.695 255.347C202.741 255.263 207.481 253.035 212.036 250.847C218.975 247.526 225.943 244.174 232.378 239.955C239.232 235.456 245.472 229.919 250.224 223.246C250.769 222.488 251.29 221.705 251.795 220.92L251.808 220.901Z" fill="#A23A43"/>
<path id="Vector_4" d="M167.258 326.462C167.188 326.547 166.937 326.659 166.544 326.7C165.633 326.798 164.302 326.531 163.249 326.154C163.164 326.127 163.08 326.127 162.982 326.097C162.589 325.748 162.183 325.41 161.749 325.115C161.021 324.624 160.29 324.147 159.212 323.981C159.283 325.074 159.69 325.846 160.123 326.601C160.391 327.065 160.699 327.512 161.021 327.932C161.034 328.071 161.021 328.2 161.078 328.325C161.332 329.067 161.471 330.133 161.315 330.695C161.146 331.257 160.966 331.396 160.208 331.592C159.534 331.704 158.637 331.578 157.756 331.213C156.886 330.891 155.92 330.329 155.206 329.784L154.996 329.855C154.477 329.056 153.861 328.341 153.174 327.668C152.767 327.289 152.361 326.896 151.897 326.561C151.42 326.225 150.874 325.958 150.102 325.86C149.991 326.631 150.13 327.234 150.326 327.78C150.536 328.311 150.817 328.789 151.084 329.28C151.434 329.896 151.826 330.458 152.249 331.003C152.208 331.044 152.178 331.101 152.137 331.128C151.954 331.268 151.758 331.352 151.494 331.382C150.989 331.467 150.034 331.199 149.601 330.793C148.171 329.645 146.712 327.919 145.354 326.28C142.662 322.901 140.112 319.328 137.741 315.655C136.55 313.833 135.429 311.968 134.348 310.089C133.83 309.151 133.298 308.196 132.835 307.244C132.344 306.276 132.036 305.436 131.405 304.204C131.111 303.615 130.745 303.069 130.325 302.535V302.521C130.383 301.427 130.481 300.334 130.674 299.254C131.264 296.044 132.693 292.891 135.161 290.745C137.63 288.615 141.233 287.647 144.287 288.782C147.623 290.044 149.658 293.352 151.548 296.379C152.306 297.585 153.133 298.831 154.098 299.911C154.464 300.487 154.84 301.046 155.263 301.594C155.937 302.491 156.678 303.361 157.505 304.16C158.277 304.973 159.272 305.731 159.987 306.333C161.514 307.623 162.93 309.08 164.193 310.623C165.398 312.15 166.59 313.89 167.122 315.488C167.234 315.742 167.261 316.02 167.278 316.132C167.25 316.146 167.207 316.173 167.152 316.203C166.718 316.47 165.679 316.65 164.91 316.667H164.869C164.73 316.582 164.602 316.47 164.449 316.386C164.002 316.148 163.565 315.895 163.104 315.685C162.641 315.461 162.166 315.251 161.689 315.068C161.184 314.899 160.639 314.788 159.979 314.872C160.118 315.516 160.399 315.993 160.737 316.413C161.059 316.806 161.424 317.185 161.773 317.547C162.139 317.913 162.515 318.248 162.894 318.584C163.034 318.709 163.189 318.807 163.342 318.919C163.383 319.058 163.44 319.214 163.525 319.353C164.324 320.46 165.109 321.567 165.783 322.674C166.443 323.768 167.073 324.96 167.256 325.884C167.327 326.263 167.269 326.446 167.269 326.46L167.258 326.462Z" fill="#FF4B55"/>
<path id="Vector_5" d="M257.907 190.442L257.85 191.423L257.751 193.401L257.541 197.325C257.176 201.361 256.505 205.37 255.537 209.311C255.046 211.288 254.5 213.235 253.868 215.168C253.251 217.102 252.564 218.995 251.822 220.874C251.808 220.874 251.808 220.887 251.808 220.901C251.304 221.686 250.785 222.472 250.237 223.227C245.486 229.9 239.245 235.436 232.391 239.936C225.957 244.155 218.988 247.507 212.049 250.828C207.495 253.015 202.754 255.244 197.708 255.328C194.653 255.385 191.132 254.235 190.082 251.36C189.368 249.397 190.011 247.226 190.671 245.235C191.989 241.212 193.306 237.204 194.64 233.167V233.154L194.654 233.14C195.172 232.328 195.635 231.485 196.055 230.618C196.715 229.23 197.234 227.814 197.654 226.355C197.935 225.332 198.158 224.31 198.314 223.257C203.346 223.819 208.506 223.704 213.511 222.515C219.007 221.225 224.012 218.479 228.428 215.198C232.844 211.877 236.769 207.895 240.023 203.453C243.304 199.024 246.01 194.314 248.827 189.787C249.599 188.568 250.202 187.39 250.873 186.269C251.546 185.135 252.247 184.027 252.989 183.018C253.368 182.528 253.761 182.05 254.154 181.63C254.533 181.238 254.98 180.916 255.177 180.845C255.261 180.886 255.359 180.916 255.471 181.055C255.739 181.278 256.017 181.756 256.27 182.233C257.209 184.336 257.631 187.014 257.869 189.55L257.91 190.027C257.923 190.21 257.923 190.251 257.91 190.447L257.907 190.442Z" fill="#FF4B55"/>
<path id="Vector_6" d="M145.22 130.671C143.889 131.934 142.234 132.845 140.439 133.207C137.496 133.797 134.215 132.815 132.251 130.543C130.287 128.258 129.84 124.74 131.34 122.133C129.112 122.16 126.867 122.19 124.682 121.797C122.481 121.418 120.324 120.592 118.668 119.092C117.015 117.592 115.949 115.378 116.172 113.163C113.93 111.819 112.905 108.819 113.69 106.351C114.195 105.762 114.727 105.186 115.133 104.404C114.222 104.319 113.437 104.461 112.638 104.6C112.512 104.627 112.384 104.671 112.245 104.698C112.286 103.885 112.526 103.029 112.987 102.189C113.393 101.431 113.941 100.648 114.528 99.9038C115.158 99.7784 115.818 99.6229 116.448 99.4566C116.882 99.3447 117.304 99.2602 117.724 99.1484C118.158 99.0366 118.551 98.8811 119.085 98.8675C118.848 98.3493 118.313 98.0548 117.866 97.8448C117.531 97.7057 117.192 97.6076 116.857 97.5367C117.124 97.3403 117.389 97.1712 117.67 97.0321C118.259 96.7103 118.916 96.5549 119.647 96.5004C121.063 96.4022 122.8 96.754 124.161 97.313C127.006 98.4912 129.139 101.139 130.568 104.098C131.97 107.084 132.895 110.433 133.233 113.741V113.755C133.304 114.469 133.907 115.018 134.608 115.018C134.665 115.018 134.706 115.004 134.763 115.004C135.535 114.933 136.094 114.246 136.026 113.477C135.647 109.776 134.681 106.244 133.097 102.879C131.498 99.5711 128.989 96.2904 125.247 94.7359C124.336 94.3296 123.368 94.0923 122.443 93.9096C121.488 93.7405 120.495 93.6287 119.47 93.6996C118.474 93.7705 117.424 94.0078 116.497 94.485C115.823 93.9396 114.631 93.3069 112.599 93.0424C112.599 93.0424 113.538 92.4397 114.73 91.5833C114.743 91.5833 114.743 91.5697 114.757 91.5697H114.77C116.088 91.0079 117.337 90.2798 118.513 89.4671C119.844 88.5126 121.12 87.4763 122.285 86.3145C123.463 85.1801 124.527 83.931 125.552 82.6547C125.833 82.2893 126.084 81.9266 126.351 81.5612C127.977 87.1545 132.254 96.6285 133.263 98.873C133.473 99.3202 133.95 99.6311 134.441 99.6856C134.498 99.6856 140.103 100.444 144.309 115.762C145.782 121.145 145.823 126.261 145.22 130.677V130.671Z" fill="#FF4B55"/>
<path id="Vector_7" d="M62.9152 156.211C62.9288 156.688 62.9152 157.233 62.8443 157.724C62.7461 158.412 62.5633 159.069 62.2824 159.688C61.9333 160.528 61.3851 161.259 60.725 161.875C60.4577 161.567 60.1931 161.286 59.8986 161.005C59.2549 160.416 58.5376 159.911 57.7684 159.491C56.2683 158.665 54.5009 158.161 52.7225 158.608C53.3389 159.309 53.9554 159.786 54.5309 160.318L56.2137 161.76C56.3392 161.859 56.451 161.97 56.5628 162.082C54.8118 161.55 52.8753 161.507 51.0669 161.859C48.124 162.42 45.4183 163.849 42.7808 165.306C35.7575 169.189 27.7795 170.855 20.1398 167.676C13.6483 164.984 10.7899 159.813 8.37882 153.462C5.89679 146.93 4.48122 139.976 4.24392 132.984C5.00217 129.073 6.05226 125.203 7.56602 121.533L8.85613 118.506L9.49982 116.992L9.61165 116.697L9.79439 116.403L10.2853 115.645C10.4544 115.35 10.6072 115.14 10.8172 114.551C10.8308 114.467 10.8581 114.382 10.8745 114.257C11.5891 113.471 12.1646 112.547 12.5846 111.579C13.4411 109.615 13.7629 107.485 14.0711 105.383C14.6739 101.458 15.7813 97.1412 16.3704 93.2169C22.5945 96.9721 27.1795 97.5912 29.9561 97.4358C30.1934 97.6185 30.3761 97.7576 30.4743 97.8421C30.4743 97.8421 23.5355 122.021 26.8713 138.07C26.6885 137.789 26.4921 137.481 26.2821 137.173L26.2685 137.159C26.2594 137.15 26.2549 137.141 26.2549 137.132C25.7912 136.515 24.9238 136.374 24.2911 136.824C23.661 137.287 23.5328 138.154 23.9828 138.787C24.5011 139.502 24.9647 140.497 25.8621 141.465C26.8167 142.474 27.9377 142.979 28.9878 143.412C30.0543 143.819 31.2162 144.072 32.1844 144.252C33.1936 144.462 34.2164 144.672 35.2556 144.841C37.3312 145.19 39.4751 145.444 41.7034 145.319C42.7972 145.261 43.9618 145.065 45.0255 144.757C46.0074 144.476 46.9593 144.225 47.9276 144.015C49.8341 143.595 51.7133 143.412 53.5353 143.693C55.0927 143.917 56.5765 144.506 57.8666 145.362C57.8093 145.362 57.7548 145.349 57.7111 145.335C56.8711 145.278 56.0283 145.21 55.1745 145.321C54.3345 145.433 53.4235 145.67 52.7225 146.303C53.579 146.639 54.2799 146.933 55.0082 147.187L57.182 147.888C58.4857 148.308 59.8031 148.728 61.1205 149.066C61.3305 149.445 61.5405 149.837 61.7369 150.214C62.1297 150.999 62.4788 151.826 62.7052 152.625C62.187 152.371 61.6687 152.147 61.1205 151.981C59.6067 151.547 57.9102 151.266 56.4237 152.248C57.1384 152.794 57.7548 153.088 58.3712 153.413C58.9876 153.707 59.5767 153.988 60.1386 154.324C60.7005 154.645 61.246 154.997 61.7642 155.374C62.1569 155.641 62.5497 155.935 62.9125 156.213L62.9152 156.211Z" fill="#FF4B55"/>
<path id="Vector_8" d="M125.132 39.0698C124.949 39.0126 124.753 38.9989 124.543 39.0126C124.584 39.2498 124.614 39.4598 124.641 39.6562C124.682 39.8525 124.726 40.0489 124.767 40.218C124.851 40.567 124.99 40.8779 125.102 41.1997C125.326 41.8597 125.62 42.5033 125.929 43.0487C125.942 43.0623 125.942 43.076 125.956 43.0896C125.97 43.1469 125.97 43.2151 125.983 43.2723L126.068 43.6214L126.403 44.9659C126.867 46.7876 127.175 48.6393 127.538 50.4883C127.636 51.0201 127.734 51.5682 127.832 52.1C123.403 49.5638 111.249 44.0959 96.4716 49.8992C96.4716 49.8992 68.1684 27.4168 43.1708 52.2255C43.1708 52.2255 22.7446 46.2967 10.7026 56.9352C10.7872 55.6889 10.899 54.4263 11.0381 53.18C11.4036 49.9838 11.8946 46.7467 12.5792 43.6623V43.6487C12.5928 43.5914 12.5792 43.5369 12.5928 43.4796C12.901 42.8633 13.1547 42.2033 13.3347 41.5161C13.4465 41.0252 13.572 40.5616 13.5883 40.0434C13.6156 39.6234 13.5747 39.1735 13.4056 38.6553C13.0401 38.7808 12.7319 38.9362 12.481 39.1326C11.0518 37.7717 9.99895 36.0209 9.48073 34.1146C8.97614 32.2929 8.98978 30.3294 9.46709 28.494C10.0562 27.9623 10.8117 27.5968 11.6545 27.4277C13.5611 27.0078 15.9449 27.4414 17.8923 28.1995L17.9496 28.2131C18.5797 28.4668 19.3243 28.2404 19.717 27.6514C23.8519 21.499 29.2769 16.2547 35.5584 12.2895C41.8098 8.30786 48.8904 5.61619 56.1946 4.24445C63.5125 2.86998 71.0841 2.70362 78.5983 3.1236C86.0417 3.51631 93.4032 5.19894 99.9628 8.61876C106.495 12.0113 112.188 17.0838 116.156 23.2661C116.423 23.6725 116.688 24.0925 116.996 24.5124C117.135 24.7224 117.291 24.9324 117.473 25.156C117.683 25.3797 117.809 25.5897 118.313 25.9551C118.398 26.0124 118.469 26.0533 118.567 26.0942C118.581 26.1078 118.665 26.1514 118.804 26.1923C118.93 26.2196 119.072 26.2496 119.197 26.2496C119.336 26.2633 119.464 26.2496 119.59 26.236L119.647 26.2223L119.732 26.2087L120.04 26.1378C120.25 26.1105 120.46 26.0669 120.684 26.0396C121.104 25.9687 121.54 25.9415 121.974 25.9142C123.698 25.8433 125.451 26.0533 126.965 26.6723C127.652 26.9396 128.269 27.3023 128.787 27.7386C129.234 29.1676 129.234 30.7521 128.899 32.2111C128.408 34.3846 127.216 36.3454 125.871 38.1126C125.634 38.4344 125.38 38.7562 125.129 39.0671L125.132 39.0698Z" fill="#FF4B55"/>
<path id="Vector_9" d="M12.4892 39.1407C11.9273 39.5062 11.5645 39.9971 11.1854 40.4579C10.989 40.7252 10.8063 40.9897 10.6399 41.257C9.40708 40.3325 8.41155 38.9444 7.86332 37.4308C7.14871 35.4673 7.13507 33.2829 7.82241 31.2784C8.20153 30.2694 8.60793 29.3013 9.25162 28.6986C9.32253 28.6277 9.39072 28.5595 9.47527 28.5022C8.99796 30.3376 8.98432 32.3011 9.48891 34.1228C10.0071 36.0291 11.0599 37.7799 12.4892 39.1407Z" fill="#A23A43"/>
<path id="Vector_10" d="M130.713 32.0066C130.77 32.8329 130.699 33.6756 130.53 34.4883C130.208 36.1136 129.45 37.6572 128.37 38.8898C128.075 39.2116 127.824 39.4789 127.5 39.7462C127.361 39.8716 127.191 40.0134 127.009 40.1661C126.938 40.0952 126.87 40.0271 126.785 39.9698C126.491 39.7325 126.196 39.4789 125.83 39.2962C125.62 39.198 125.383 39.1135 125.129 39.0726C125.383 38.7644 125.634 38.4426 125.871 38.1181C127.216 36.3509 128.408 34.3901 128.899 32.2166C129.234 30.7576 129.234 29.1758 128.787 27.7441C129.431 28.2759 129.922 28.9358 130.23 29.6913C130.497 30.3649 130.677 31.1639 130.707 32.0039L130.713 32.0066Z" fill="#A23A43"/>
<path id="Vector_11" d="M29.9561 97.4385C27.1795 97.5939 22.5973 96.9749 16.3704 93.2196C15.7813 97.144 14.6739 101.461 14.0711 105.385C13.7629 107.488 13.4411 109.618 12.5846 111.581C12.1646 112.549 11.5891 113.474 10.8745 114.259C10.9018 114.104 10.9154 113.894 10.8745 113.586L10.8472 113.389L10.7763 112.983L10.5226 111.385C10.3399 110.319 10.299 109.225 10.1871 108.148C9.79439 100.397 11.1963 92.4206 13.7056 85.0055C14.1393 85.5946 14.5621 86.17 15.023 86.7291C16.0895 88.0599 17.2377 89.3226 18.4706 90.5007C19.6898 91.6924 21.0071 92.8133 22.4664 93.7814C23.7701 94.665 25.3275 95.4777 27.0376 95.3386C28.145 96.124 29.2797 96.9367 29.9533 97.4412L29.9561 97.4385Z" fill="#A23A43"/>
<path id="Vector_12" d="M192.324 163.781C192.324 163.795 192.311 163.809 192.311 163.822C191.637 163.683 190.909 163.863 190.333 164.256C189.632 164.747 189.155 165.475 188.748 166.219C187.276 168.911 186.659 171.979 186.127 175.009C184.908 181.78 183.967 188.593 183.029 195.405C182.006 202.82 180.983 210.32 181.515 217.789C181.613 219.036 181.6 220.271 181.501 221.49C181.461 221.476 181.431 221.449 181.39 221.433C181.431 221.474 181.461 221.531 181.501 221.572C180.323 236.135 166.446 248.388 154.136 256.91C149.538 260.092 144.435 262.798 140.974 267.199C137.946 271.025 136.432 275.82 134.021 280.066C131.596 284.312 127.699 288.321 122.819 288.517C122.819 288.517 88.8237 289.878 52.8507 240.915C52.8507 240.915 26.5222 205.452 29.5224 182.8C30.8534 181.456 32.2854 180.264 33.8673 179.225C35.1438 178.412 36.4039 177.586 37.6804 176.757C39.7696 191.53 48.9095 234.831 85.3162 251.903C129.545 272.648 164.245 235.966 151.024 193.199C151.024 193.199 146.371 179.882 134.706 161.477C132.491 157.986 130.808 154.763 129.518 151.834C131.465 152.802 133.568 153.489 135.701 153.964C138.478 154.594 141.336 154.874 144.184 155.057C147.661 159.892 152.497 164.7 155.274 167.321C155.217 167.335 155.162 167.348 155.105 167.378C154.6 167.602 154.096 167.842 153.662 168.218C153.215 168.584 152.822 169.058 152.595 169.718C153.269 169.942 153.787 169.999 154.306 170.04C154.81 170.097 155.274 170.04 155.735 170.04C156.212 170.013 156.659 169.969 157.123 169.928C157.333 169.901 157.57 169.871 157.797 169.83C158.02 169.803 158.23 169.759 158.427 169.691L158.454 169.677C158.539 169.677 158.623 169.677 158.708 169.65C171.83 166.721 178.545 176.181 179.974 178.524C178.924 182.296 177.62 186.193 176.862 190.202C175.907 194.854 175.572 199.635 175.741 204.372C175.768 205.144 176.415 205.76 177.184 205.733C177.465 205.719 177.729 205.634 177.942 205.479C178.027 205.422 178.098 205.367 178.152 205.296C178.406 205.029 178.559 204.68 178.545 204.287V204.26C178.389 199.733 178.7 195.192 179.611 190.747C180.353 186.765 181.673 182.953 182.781 178.89C182.822 178.791 182.852 178.707 182.865 178.595C182.977 178.189 183.103 177.782 183.214 177.362C183.468 176.171 183.719 174.965 183.776 173.648C183.833 172.5 183.902 171.504 184.142 170.411C184.548 168.295 185.32 166.192 186.356 164.299C186.861 163.345 187.477 162.464 188.151 161.72C188.795 160.978 189.624 160.389 190.169 160.304C190.478 160.291 190.688 160.318 190.898 160.443C191.121 160.555 191.361 160.85 191.571 161.215C191.964 161.902 192.215 162.898 192.33 163.781H192.324Z" fill="#FF4B55"/>
<path id="Vector_13" d="M140.679 148.951C141.407 150.885 142.67 152.974 144.184 155.063C141.339 154.88 138.478 154.599 135.701 153.969C133.571 153.492 131.468 152.805 129.518 151.839C125.353 142.42 125.34 136.041 125.593 133.464C125.749 133.589 125.915 133.717 126.07 133.843C127.513 134.866 129.057 135.708 130.683 136.311C131.482 136.633 132.295 136.886 133.121 137.096C133.977 137.208 134.872 137.208 135.786 136.914C135.126 136.172 134.441 135.722 133.724 135.356C133.023 134.936 132.281 134.696 131.594 134.29C130.219 133.548 128.929 132.678 127.767 131.697C126.619 130.701 125.593 129.58 124.753 128.361C124.319 127.745 123.94 127.115 123.618 126.455C123.31 125.811 123.016 125.053 122.847 124.522L122.806 124.396C122.65 123.864 122.189 123.442 121.586 123.373L121.573 123.36L119.876 123.136L118.237 122.757C117.214 122.405 116.175 122.029 115.362 121.396C114.55 120.807 113.889 120.052 113.497 119.182C113.273 118.748 113.161 118.271 113.063 117.794C113.022 117.486 112.992 117.12 113.006 116.812C113.469 116.365 113.93 115.857 114.35 115.326C114.896 114.652 115.387 114.036 115.851 112.986C114.686 112.664 113.734 113.098 112.908 113.518C112.572 113.687 112.264 113.897 111.953 114.093C111.841 113.897 111.729 113.7 111.645 113.477C111.391 112.847 111.252 112.16 111.252 111.459C111.225 110.758 111.323 110.043 111.506 109.329C111.661 108.753 111.926 108.123 112.179 107.632C112.389 107.507 112.586 107.365 112.782 107.212C113.077 106.959 113.358 106.694 113.639 106.413C113.652 106.4 113.666 106.373 113.696 106.356C112.91 108.824 113.933 111.824 116.178 113.169C115.954 115.383 117.018 117.597 118.673 119.097C120.329 120.597 122.487 121.424 124.688 121.803C126.875 122.195 129.117 122.168 131.345 122.138C129.845 124.745 130.295 128.263 132.256 130.549C134.22 132.82 137.499 133.799 140.444 133.213C142.239 132.847 143.892 131.937 145.226 130.677C144.02 139.311 140.36 145.297 140.248 145.48C139.994 145.829 139.645 146.292 139.337 146.699C139.015 147.132 138.65 147.525 138.287 147.931C137.921 148.324 137.529 148.703 137.095 149.038C136.675 149.417 136.255 149.767 135.791 150.369C136.479 150.664 137.193 150.637 137.823 150.454C138.44 150.257 139.07 150.02 139.632 149.668C140.011 149.472 140.346 149.221 140.682 148.954L140.679 148.951Z" fill="#A23A43"/>
<path id="Vector_14" d="M212.273 168.911C212.232 168.687 212.175 168.505 212.148 168.434C212.09 168.434 212.049 168.447 211.992 168.447C211.853 168.461 211.711 168.488 211.586 168.518C211.389 168.559 211.237 168.63 211.095 168.687L209.385 171.87C209.063 172.445 208.782 173.048 208.335 173.58C207.871 174.098 207.366 174.589 206.554 174.941C206.33 174.084 206.384 173.383 206.496 172.699C206.635 172.025 206.93 171.436 207.184 170.82L208.656 167.302C208.91 166.266 209.063 165.074 209.036 164.079C209.022 163.574 208.951 163.097 208.826 162.802C208.686 162.48 208.629 162.467 208.517 162.423C208.362 162.382 208.236 162.366 207.942 162.494C207.675 162.619 207.298 162.887 206.96 163.252C206.273 163.967 205.599 164.962 205.081 165.887C204.715 166.909 204.211 167.864 203.622 168.802C203.341 169.266 203.019 169.726 202.711 170.19C202.375 170.624 201.952 171.046 201.21 171.324C200.916 170.596 200.929 170.007 201.014 169.459C201.139 168.914 201.238 168.366 201.393 167.834C201.66 166.811 201.996 165.829 202.46 164.891C202.754 163.629 202.978 162.27 203.035 160.98C202.432 160.659 201.745 160.49 201.071 160.476C199.418 160.449 197.834 161.234 196.585 162.325C196.121 162.731 195.687 163.165 195.308 163.642C195.237 163.811 195.183 163.991 195.125 164.174C194.97 165.745 194.55 167.245 194.004 168.715C193.723 169.456 193.429 170.201 193.022 170.915C192.616 171.603 192.071 172.331 191.157 172.723C191.001 171.769 190.988 171.027 191.059 170.255C191.157 169.514 191.282 168.769 191.394 168.014C191.631 166.598 191.899 165.183 192.305 163.822C191.631 163.683 190.903 163.863 190.328 164.256C189.627 164.747 189.149 165.475 188.743 166.219C187.27 168.911 186.654 171.979 186.122 175.009C184.903 181.78 183.962 188.593 183.023 195.405C182.001 202.82 180.978 210.32 181.51 217.789C181.608 219.036 181.594 220.271 181.496 221.49C182.898 222.218 184.229 222.976 185.617 223.325C187.046 223.674 188.435 223.704 189.613 223.2C190.778 222.709 191.871 221.812 192.529 220.748C193.243 219.529 194.029 218.056 194.716 216.698C196.132 213.922 197.408 211.078 198.333 208.203C198.557 207.489 198.753 206.774 198.908 206.073C198.993 205.722 199.02 205.373 199.077 205.024L199.274 203.791C199.582 202.095 200.059 200.51 200.578 198.956C202.738 192.787 205.765 187.166 208.583 181.505C209.971 178.786 211.119 175.939 211.834 173.023C212.17 171.608 212.423 170.051 212.268 168.916L212.273 168.911ZM201.129 184.371C200.834 184.428 200.512 183.558 199.852 182.451C199.517 181.919 199.053 181.358 198.45 181.036C197.861 180.714 196.977 180.572 195.968 180.531C195 180.49 194.119 180.602 193.459 180.88C192.799 181.148 192.281 181.638 191.861 182.143C191.034 183.152 190.5 183.937 190.235 183.812C190.011 183.7 190.025 182.803 190.669 181.374C191.004 180.687 191.593 179.817 192.632 179.244C193.642 178.669 194.874 178.486 196.053 178.543C197.201 178.584 198.437 178.797 199.432 179.481C200.428 180.182 200.905 181.137 201.142 181.878C201.576 183.406 201.366 184.33 201.129 184.374V184.371Z" fill="#A23A43"/>
<path id="Vector_15" d="M33.1118 96.7785C33.1118 96.7785 32.0317 97.3239 29.9588 97.4385C29.2851 96.934 28.1505 96.1213 27.0431 95.3359C27.1986 95.3222 27.3377 95.3086 27.4904 95.2786C26.1867 93.9614 25.052 93.0205 23.8165 92.0115C22.6109 90.9752 21.5172 89.8107 20.4371 88.6053C19.3706 87.3999 18.3478 86.1536 17.3523 84.8773L14.7039 81.4003C14.663 81.2612 14.6193 81.1194 14.5348 80.9803C12.9637 78.3868 11.9982 75.3869 11.3818 72.3189C10.8063 69.6 10.6099 66.7829 10.5417 63.9521C12.8546 70.9036 19.4006 87.0099 33.1118 96.7812V96.7785Z" fill="#B8997F"/>
<path id="Vector_16" d="M151.024 193.201C151.024 193.201 146.371 179.885 134.706 161.48C132.491 157.989 130.808 154.765 129.518 151.836C125.353 142.417 125.34 136.038 125.593 133.461C124.374 132.479 123.239 131.358 122.326 130.041C121.78 129.327 121.357 128.528 120.965 127.701C120.711 127.156 120.501 126.621 120.321 126.019L119.383 125.893C118.739 125.768 118.093 125.599 117.449 125.446C116.172 125.012 114.869 124.549 113.72 123.665C112.572 122.839 111.547 121.688 110.944 120.344C110.412 119.152 110.158 117.974 110.216 116.616C109.752 115.972 109.318 115.271 109.037 114.499C108.658 113.561 108.462 112.536 108.448 111.527C108.421 110.531 108.546 109.536 108.797 108.598C109.021 107.84 109.261 107.169 109.624 106.454C109.4 105.571 109.356 104.66 109.498 103.806C109.667 102.726 110.044 101.761 110.507 100.877C110.955 100.007 111.544 99.1947 112.078 98.4939C112.19 98.3384 112.316 98.1993 112.428 98.0466C112.526 97.8503 112.665 97.6812 112.834 97.5421C113.183 97.1358 113.535 96.7294 113.941 96.3367C114.629 95.6631 115.441 95.0195 116.393 94.5286C116.421 94.515 116.464 94.5014 116.491 94.4877C115.818 93.9423 114.626 93.3096 112.594 93.0451C112.594 93.0451 113.532 92.4424 114.724 91.5861C114.569 91.6706 114.389 91.7252 114.219 91.7961C115.411 90.6888 116.573 89.6225 117.626 88.4471C118.693 87.2827 119.702 86.1073 120.667 84.8719C121.606 83.6256 122.56 82.3902 123.414 81.1003C124.298 79.824 125.181 78.4931 125.896 77.2032C125.953 77.105 126.021 77.0069 126.092 76.936L126.106 76.9087C127.186 75.7442 127.901 74.2034 128.364 72.5071C128.476 72.0735 128.588 71.6371 128.673 71.2035C128.94 69.8727 129.093 68.4982 129.191 67.1538C129.414 63.494 129.052 59.766 128.517 56.0516C128.362 54.7208 128.097 53.4172 127.83 52.1137C123.4 49.5774 111.247 44.1096 96.4689 49.9129C96.4689 49.9129 68.1656 27.4305 43.1681 52.2391C43.1681 52.2391 22.7418 46.3103 10.6999 56.9489C10.5608 58.9124 10.4899 60.8732 10.5035 62.8231C10.5035 63.2022 10.5172 63.5812 10.5308 63.9576C12.8437 70.909 19.3897 87.0154 33.1009 96.7867C33.1009 96.7867 32.0208 97.3321 29.9479 97.4467C30.1852 97.6294 30.3679 97.7685 30.4661 97.853C30.4661 97.853 23.5274 122.032 26.8631 138.081C27.2286 138.67 27.5504 139.188 27.8995 139.553C28.3468 140.058 29.146 140.464 29.9888 140.8C30.8452 141.122 31.6989 141.318 32.7354 141.514C33.7309 141.724 34.7265 141.921 35.7084 142.09C37.6858 142.411 39.6469 142.635 41.5261 142.523C42.4808 142.466 43.3481 142.327 44.2454 142.076C45.2546 141.782 46.2638 141.514 47.3166 141.277C49.4195 140.83 51.6752 140.59 53.9335 140.928C56.1919 141.263 58.3903 142.147 60.2013 143.592C61.1123 144.307 61.9388 145.163 62.5988 146.142C63.2152 147.067 63.7334 147.978 64.238 148.959C64.7153 149.941 65.1627 150.964 65.4572 152.098C65.7245 153.135 65.8636 154.299 65.6536 155.518C65.7518 156.456 65.7245 157.255 65.6127 158.112C65.4872 159.036 65.2336 159.947 64.8544 160.817C64.4753 161.7 63.9571 162.527 63.327 163.228C63.0325 163.577 62.7106 163.901 62.3588 164.182V164.196C61.1396 167.321 58.2784 169.803 54.9836 170.49C52.488 171.022 49.8532 170.588 47.3848 171.232C45.5056 171.709 43.8527 172.773 42.2271 173.825C40.7133 174.807 39.1859 175.789 37.6722 176.768C39.7614 191.541 48.9013 234.842 85.308 251.914C129.537 272.659 164.236 235.976 151.016 193.21L151.024 193.201ZM77.1309 102.805C75.4617 103.367 73.0233 103.828 70.3313 103.774C67.6256 103.716 65.2145 103.171 63.5589 102.555C61.9197 101.925 61.0087 101.278 61.1069 101.041C61.3169 100.496 65.3263 101.715 70.3585 101.783C75.4044 101.908 79.4575 100.845 79.6402 101.404C79.7248 101.641 78.8002 102.26 77.1309 102.805Z" fill="#F5EFE7"/>
<path id="Vector_17" d="M201.129 184.371C200.834 184.428 200.512 183.558 199.852 182.451C199.517 181.919 199.053 181.358 198.45 181.036C197.861 180.714 196.977 180.572 195.968 180.531C195 180.49 194.119 180.602 193.459 180.88C192.799 181.148 192.281 181.638 191.861 182.143C191.034 183.152 190.499 183.937 190.235 183.812C190.011 183.7 190.025 182.803 190.669 181.374C191.004 180.687 191.593 179.817 192.632 179.244C193.642 178.669 194.874 178.486 196.053 178.543C197.201 178.584 198.437 178.797 199.432 179.481C200.428 180.182 200.905 181.137 201.142 181.878C201.576 183.406 201.366 184.33 201.129 184.374V184.371Z" fill="#09424A"/>
<path id="Vector_18" d="M135.786 136.911C134.875 137.205 133.977 137.205 133.121 137.094C132.295 136.884 131.482 136.63 130.683 136.308C129.057 135.706 127.513 134.866 126.07 133.84C125.915 133.715 125.749 133.587 125.593 133.461C124.374 132.479 123.239 131.358 122.326 130.041C121.78 129.327 121.357 128.528 120.965 127.701C120.711 127.156 120.501 126.621 120.321 126.019L119.383 125.893C118.739 125.768 118.093 125.599 117.449 125.446C116.172 125.012 114.869 124.549 113.72 123.665C112.572 122.839 111.547 121.688 110.944 120.344C110.412 119.152 110.158 117.974 110.216 116.616C109.752 115.972 109.318 115.271 109.037 114.499C108.658 113.561 108.462 112.536 108.448 111.527C108.421 110.531 108.546 109.536 108.797 108.598C109.021 107.84 109.261 107.169 109.624 106.454C109.4 105.571 109.356 104.66 109.498 103.806C109.667 102.726 110.044 101.761 110.507 100.877C110.955 100.007 111.544 99.1948 112.078 98.4939C112.19 98.3384 112.316 98.1994 112.428 98.0466C112.526 97.8503 112.665 97.6812 112.834 97.5421C113.183 97.1358 113.535 96.7294 113.941 96.3367C114.629 95.6631 115.441 95.0195 116.393 94.5286C116.421 94.515 116.464 94.5014 116.491 94.4877C117.416 94.0105 118.469 93.7732 119.464 93.7023C120.487 93.6314 121.483 93.7432 122.437 93.9123C123.362 94.095 124.33 94.3323 125.241 94.7386C128.983 96.2958 131.493 99.5738 133.091 102.882C134.676 106.247 135.641 109.779 136.02 113.479C136.091 114.251 135.529 114.938 134.758 115.007C134.7 115.007 134.659 115.02 134.602 115.02C133.901 115.02 133.298 114.475 133.227 113.758V113.744C132.892 110.436 131.965 107.087 130.563 104.101C129.133 101.142 127.001 98.4939 124.156 97.3158C122.795 96.754 121.057 96.4049 119.642 96.5031C118.914 96.5604 118.253 96.7131 117.664 97.0349C117.383 97.174 117.119 97.343 116.852 97.5394C117.187 97.6103 117.525 97.7085 117.861 97.8476C118.308 98.0575 118.843 98.3521 119.08 98.8702C118.548 98.8839 118.155 99.0393 117.719 99.1511C117.299 99.2629 116.879 99.3475 116.442 99.4593C115.812 99.6284 115.152 99.7811 114.522 99.9065C113.933 100.648 113.388 101.434 112.981 102.192C112.518 103.032 112.28 103.888 112.239 104.701C112.378 104.674 112.507 104.63 112.632 104.603C113.431 104.464 114.217 104.322 115.128 104.406C114.721 105.192 114.189 105.767 113.685 106.353C113.658 106.367 113.644 106.394 113.628 106.411C113.347 106.692 113.066 106.956 112.771 107.21C112.575 107.365 112.378 107.504 112.168 107.63C111.915 108.121 111.65 108.751 111.495 109.326C111.312 110.041 111.214 110.755 111.241 111.456C111.241 112.157 111.38 112.844 111.634 113.474C111.718 113.698 111.83 113.894 111.942 114.09C112.25 113.894 112.558 113.684 112.897 113.515C113.723 113.095 114.678 112.659 115.84 112.983C115.376 114.033 114.885 114.652 114.339 115.323C113.919 115.855 113.456 116.359 112.995 116.809C112.981 117.117 113.008 117.483 113.052 117.791C113.15 118.268 113.262 118.746 113.486 119.179C113.879 120.049 114.536 120.804 115.351 121.394C116.164 122.024 117.201 122.403 118.226 122.754L119.865 123.133L121.562 123.357L121.576 123.371C122.178 123.442 122.642 123.862 122.795 124.393L122.836 124.519C123.005 125.051 123.299 125.809 123.608 126.452C123.929 127.112 124.309 127.742 124.742 128.359C125.582 129.578 126.608 130.699 127.756 131.694C128.921 132.676 130.208 133.543 131.583 134.287C132.27 134.694 133.012 134.931 133.713 135.354C134.428 135.719 135.115 136.166 135.775 136.911H135.786Z" fill="#09424A"/>
<path id="Vector_19" d="M65.6618 155.51C65.76 156.448 65.7327 157.247 65.6209 158.103C65.4954 159.028 65.2418 159.939 64.8626 160.809C64.4835 161.692 63.9653 162.519 63.3352 163.219C63.0407 163.569 62.7188 163.893 62.367 164.174V164.188C62.0588 164.425 61.7369 164.665 61.4123 164.902C60.7959 165.742 60.1359 166.304 59.3504 166.836C58.4803 167.381 57.4847 167.76 56.4892 167.943C55.48 168.153 54.4709 168.126 53.5026 168C53.0116 167.929 52.5343 167.845 52.087 167.706L50.8815 167.384C48.064 166.598 44.881 167.313 42.2026 168.856C41.5289 169.235 40.8988 169.683 40.296 170.16C40.0015 170.397 39.7069 170.651 39.456 170.918C39.1478 171.199 39.0223 171.395 38.6568 171.788C38.2095 172.293 37.7322 172.726 37.2276 173.092C36.2048 173.863 35.0974 174.395 34.0037 174.842C32.3345 175.53 30.6379 175.963 28.9142 176.285C27.204 176.539 25.4502 177.013 23.6856 175.977C25.3111 174.772 26.9095 174.829 28.5078 174.392C30.1061 174 31.6608 173.482 33.0927 172.794C34.5083 172.107 35.8966 171.254 36.7366 170.187C36.9467 169.95 37.2985 169.445 37.6067 169.151C37.9149 168.786 38.2668 168.477 38.6023 168.169C39.3032 167.567 40.0315 167.005 40.817 166.53C43.9154 164.651 47.813 163.601 51.5988 164.539L52.8453 164.875C53.1944 164.987 53.5599 165.044 53.9117 165.098C54.6127 165.21 55.3136 165.224 55.9737 165.085C56.6338 164.973 57.2502 164.749 57.8093 164.398C58.033 164.272 58.2566 164.089 58.483 163.92C58.2457 163.683 58.0193 163.443 57.782 163.233C57.4029 162.84 56.9965 162.448 56.5628 162.085C56.451 161.973 56.3392 161.861 56.2137 161.763L54.5309 160.321C53.9554 159.789 53.3389 159.311 52.7225 158.611C54.5036 158.163 56.2683 158.668 57.7684 159.494C58.5403 159.914 59.2549 160.419 59.8986 161.008C60.1931 161.289 60.4604 161.57 60.725 161.878C61.3851 161.261 61.9306 160.533 62.2824 159.691C62.5633 159.074 62.7461 158.414 62.8443 157.727C62.9152 157.236 62.9288 156.691 62.9152 156.213C62.5497 155.933 62.1569 155.638 61.7669 155.374C61.2487 154.994 60.7005 154.645 60.1413 154.324C59.5795 153.988 58.993 153.707 58.3739 153.413C57.7575 153.091 57.1411 152.796 56.4265 152.248C57.913 151.266 59.6095 151.547 61.1232 151.981C61.6687 152.15 62.1897 152.374 62.7079 152.625C62.4843 151.826 62.1324 150.999 61.7396 150.214C61.5433 149.835 61.3332 149.442 61.1232 149.066C59.8058 148.73 58.4885 148.308 57.1847 147.888L55.0109 147.187C54.2827 146.933 53.5817 146.641 52.7252 146.303C53.4262 145.673 54.3372 145.433 55.1773 145.321C56.0337 145.21 56.8738 145.28 57.7139 145.335C57.7548 145.349 57.812 145.362 57.8693 145.362C56.5792 144.506 55.0927 143.92 53.538 143.693C51.7161 143.412 49.8368 143.595 47.9303 144.015C46.962 144.225 46.0101 144.479 45.0282 144.757C43.9618 145.065 42.7999 145.261 41.7061 145.319C39.4778 145.444 37.3312 145.193 35.2583 144.841C34.2219 144.672 33.1963 144.462 32.1872 144.252C31.2189 144.07 30.057 143.819 28.9905 143.412C27.9405 142.979 26.8167 142.474 25.8648 141.465C24.9675 140.497 24.5038 139.502 23.9856 138.787C23.5383 138.157 23.6637 137.287 24.2938 136.824C24.9238 136.376 25.7939 136.515 26.2576 137.132C26.2576 137.141 26.2621 137.15 26.2712 137.159L26.2849 137.173C26.4949 137.481 26.6913 137.789 26.874 138.07C27.2395 138.659 27.5613 139.177 27.9104 139.543C28.3578 140.047 29.1569 140.453 29.9997 140.789C30.8562 141.111 31.7099 141.307 32.7463 141.503C33.7418 141.713 34.7374 141.91 35.7193 142.079C37.6967 142.401 39.6578 142.624 41.537 142.512C42.4917 142.455 43.359 142.316 44.2564 142.065C45.2655 141.771 46.2747 141.503 47.3275 141.266C49.4304 140.819 51.6861 140.579 53.9444 140.917C56.2028 141.252 58.4012 142.136 60.2122 143.581C61.1232 144.296 61.9497 145.152 62.6097 146.131C63.2261 147.056 63.7444 147.967 64.2489 148.948C64.7263 149.93 65.1736 150.953 65.4681 152.087C65.7354 153.124 65.8745 154.288 65.6645 155.507L65.6618 155.51Z" fill="#09424A"/>
</g>
<path id="Vector_20" d="M62.3697 164.188C61.1505 167.313 58.2894 169.795 54.9945 170.482C52.4989 171.014 49.8641 170.58 47.3957 171.224C45.5165 171.701 43.8636 172.764 42.238 173.817C40.7242 174.799 39.1968 175.781 37.6831 176.76C37.4594 175.189 37.3176 173.943 37.2358 173.086C37.7404 172.721 38.2177 172.287 38.665 171.783C39.0305 171.39 39.1559 171.194 39.4641 170.913C39.7178 170.645 40.0096 170.395 40.3042 170.155C40.907 169.677 41.537 169.23 42.2107 168.851C44.8891 167.31 48.0694 166.593 50.8896 167.378L52.0952 167.7C52.5425 167.839 53.0198 167.924 53.5108 167.995C54.479 168.12 55.4882 168.15 56.4974 167.937C57.4929 167.755 58.4885 167.376 59.3585 166.83C60.1441 166.298 60.8014 165.737 61.4205 164.897C61.7424 164.659 62.0642 164.419 62.3751 164.182L62.3697 164.188Z" fill="#B8997F"/>
<path id="Vector_21" d="M79.6402 101.404C79.7248 101.641 78.8002 102.26 77.1309 102.805C75.4617 103.367 73.0233 103.828 70.3313 103.774C67.6256 103.716 65.2145 103.171 63.5589 102.555C61.9196 101.925 61.0087 101.278 61.1069 101.041C61.3169 100.496 65.3263 101.715 70.3585 101.783C75.4044 101.908 79.4575 100.845 79.6402 101.404Z" fill="#09424A"/>
</g>
</svg>
