<svg preserveAspectRatio="none" width="332" height="88" overflow="visible" style="display: block;" viewBox="0 0 332.07 87.7966" fill="none" xmlns="http://www.w3.org/2000/svg">
<g id="Group">
<path id="Vector" d="M43.9504 79.1908C43.9504 81.1538 43.2609 82.8046 41.89 84.139C40.515 85.4775 38.844 86.2197 36.8809 86.3779C35.7777 86.5361 33.3847 86.6132 29.6938 86.6132C16.5727 86.6132 10.0142 80.1317 10.0142 67.1689V38.1809H6.83429C4.86715 38.1809 3.24073 37.5522 1.94282 36.2948C0.64897 35.0375 0 33.4273 0 31.4642C0 29.5011 0.64897 28.0085 1.94282 26.7512C3.24073 25.4938 4.86715 24.8651 6.83429 24.8651H10.0142V17.4427C10.0142 14.7739 10.8984 12.535 12.6668 10.726C14.4352 8.92112 16.6538 8.01665 19.3267 8.01665C21.9996 8.01665 24.2181 8.90085 25.9825 10.6693C27.7468 12.4377 28.6351 14.6968 28.6351 17.4468V24.8692H36.7673C38.7304 24.8692 40.3812 25.4979 41.7156 26.7552C43.05 28.0126 43.7192 29.5822 43.7192 31.4682C43.7192 33.3543 43.05 35.0456 41.7156 36.2989C40.3771 37.5563 38.7304 38.1849 36.7673 38.1849H28.6351V64.6988C28.6351 67.2905 29.0083 69.136 29.7546 70.2352C30.5009 71.3384 31.8556 71.886 33.8187 71.886H36.4104C38.4505 71.8089 40.2189 72.4944 41.7115 73.9464C43.2041 75.4025 43.9504 77.1465 43.9504 79.1908Z" fill="#00647C"/>
<path id="Vector_2" d="M84.0148 23.9275C86.2902 23.9275 88.2574 24.7711 89.9082 26.4625C91.5589 28.1538 92.3822 30.1737 92.3822 32.5302C92.3822 34.8867 91.5386 36.9106 89.8473 38.5979C88.1559 40.2893 86.1361 41.1329 83.7795 41.1329H82.4857C78.6366 41.1329 75.3351 42.7431 72.5892 45.9636C69.8392 49.1881 68.4642 53.4671 68.4642 58.8088V77.5433C68.4642 80.2933 67.58 82.5727 65.8156 84.3776C64.0472 86.1866 61.8287 87.087 59.1558 87.087C56.4829 87.087 54.2643 86.1866 52.5 84.3776C50.7316 82.5727 49.8474 80.2933 49.8474 77.5433V33.2359C49.8474 30.6442 50.691 28.4824 52.3823 26.7545C54.0696 25.0267 56.2112 24.1627 58.803 24.1627C61.3947 24.1627 63.5566 25.0267 65.2844 26.7545C67.0122 28.4824 67.8761 30.6442 67.8761 33.2359V37.5961C70.0744 28.4823 74.9862 23.9275 82.6074 23.9275H84.0229H84.0148Z" fill="#00647C"/>
<path id="Vector_3" d="M140.754 26.8717C142.522 25.0668 144.741 24.1623 147.41 24.1623C150.079 24.1623 152.301 25.0465 154.07 26.8149C155.838 28.5833 156.722 30.8425 156.722 33.5924V78.0174C156.722 80.6092 155.879 82.771 154.187 84.4989C152.496 86.2267 150.359 87.0906 147.767 87.0906C145.175 87.0906 143.013 86.2267 141.285 84.4989C139.558 82.771 138.694 80.6092 138.694 78.0174V76.4843C136.966 80.0211 134.431 82.7873 131.093 84.7909C127.755 86.7945 123.845 87.7964 119.367 87.7964C112.297 87.7964 106.737 85.7359 102.693 81.611C98.6451 77.4861 96.6252 71.7712 96.6252 64.4664V33.5924C96.6252 30.8425 97.5093 28.5833 99.2777 26.8149C101.046 25.0465 103.265 24.1623 105.934 24.1623C108.602 24.1623 110.825 25.0465 112.594 26.8149C114.362 28.5833 115.246 30.8425 115.246 33.5924V59.9887C115.246 68.8672 118.901 73.3044 126.205 73.3044C129.819 73.3044 132.707 72.0268 134.869 69.4756C137.027 66.9244 138.11 63.0509 138.11 57.8674V33.5924C138.11 30.9236 138.994 28.6847 140.762 26.8758L140.754 26.8717Z" fill="#00647C"/>
<path id="Vector_4" d="M205.272 23.4527C213.128 23.4527 219.488 26.4582 224.363 32.4691C229.234 38.4801 231.668 46.1986 231.668 55.6246C231.668 65.0507 229.23 72.7692 224.363 78.7802C219.492 84.7911 213.128 87.7966 205.272 87.7966C196.235 87.7966 189.677 84.1827 185.592 76.955V78.0136C185.592 80.6053 184.749 82.7672 183.057 84.495C181.366 86.2229 179.188 87.0868 176.519 87.0868C173.85 87.0868 171.786 86.2229 170.098 84.495C168.407 82.7672 167.563 80.6053 167.563 78.0136V11.1997C167.563 8.44971 168.448 6.19054 170.216 4.42214C171.985 2.65374 174.203 1.76953 176.872 1.76953C179.541 1.76953 181.763 2.67401 183.532 4.47891C185.3 6.28787 186.18 8.52677 186.18 11.1956V33.3493C190.423 26.7502 196.787 23.4527 205.272 23.4527ZM189.129 69.2324C191.486 72.4934 194.824 74.1239 199.143 74.1239C203.463 74.1239 206.842 72.4934 209.279 69.2324C211.713 65.9755 212.934 61.4368 212.934 55.6206C212.934 49.8043 211.713 45.2698 209.279 42.0088C206.842 38.7478 203.463 37.1173 199.143 37.1173C194.824 37.1173 191.481 38.7478 189.129 42.0088C186.773 45.2698 185.592 49.8043 185.592 55.6206C185.592 61.4368 186.768 65.9714 189.129 69.2324Z" fill="#00647C"/>
<path id="Vector_5" d="M277.979 23.4527C285.836 23.4527 292.196 26.4582 297.071 32.4691C301.942 38.4801 304.376 46.1986 304.376 55.6246C304.376 65.0507 301.938 72.7692 297.071 78.7802C292.2 84.7911 285.836 87.7966 277.979 87.7966C268.943 87.7966 262.384 84.1827 258.3 76.955V78.0136C258.3 80.6053 257.456 82.7672 255.765 84.495C254.074 86.2229 251.896 87.0868 249.227 87.0868C246.558 87.0868 244.493 86.2229 242.806 84.495C241.115 82.7672 240.271 80.6053 240.271 78.0136V11.1997C240.271 8.44971 241.155 6.19054 242.924 4.42214C244.692 2.65374 246.911 1.76953 249.58 1.76953C252.248 1.76953 254.471 2.67401 256.239 4.47891C258.008 6.28787 258.888 8.52677 258.888 11.1956V33.3493C263.131 26.7502 269.494 23.4527 277.979 23.4527ZM261.837 69.2324C264.193 72.4934 267.531 74.1239 271.851 74.1239C276.171 74.1239 279.549 72.4934 281.987 69.2324C284.42 65.9755 285.641 61.4368 285.641 55.6206C285.641 49.8043 284.42 45.2698 281.987 42.0088C279.549 38.7478 276.171 37.1173 271.851 37.1173C267.531 37.1173 264.189 38.7478 261.837 42.0088C259.48 45.2698 258.3 49.8043 258.3 55.6206C258.3 61.4368 259.476 65.9714 261.837 69.2324Z" fill="#00647C"/>
<path id="Vector_6" d="M312.269 9.19488C312.269 6.60312 313.23 4.42101 315.156 2.65261C317.079 0.884204 319.415 0 322.169 0C324.923 0 327.255 0.884204 329.182 2.65261C331.104 4.42101 332.07 6.59906 332.07 9.19488C332.07 11.7907 331.129 14.0661 329.243 15.7939C327.357 17.5218 325 18.3857 322.173 18.3857C319.346 18.3857 316.99 17.5218 315.104 15.7939C313.218 14.0661 312.277 11.8678 312.277 9.19488H312.269ZM328.943 84.3763C327.174 86.1852 324.956 87.0857 322.283 87.0857C319.61 87.0857 317.391 86.2015 315.627 84.4331C313.863 82.6647 312.974 80.4095 312.974 77.6555V33.5834C312.974 30.8335 313.859 28.5743 315.627 26.8059C317.395 25.0375 319.614 24.1533 322.283 24.1533C324.952 24.1533 327.174 25.0578 328.943 26.8627C330.711 28.6716 331.591 30.9105 331.591 33.5793V77.6515C331.591 80.3244 330.707 82.5633 328.943 84.3682V84.3763Z" fill="#00647C"/>
</g>
</svg>
