<svg preserveAspectRatio="none" width="100%" height="100%" overflow="visible" style="display: block;" viewBox="0 0 90.8587 24.022" fill="none" xmlns="http://www.w3.org/2000/svg">
<g id="Group">
<path id="Vector" d="M12.0254 21.6671C12.0254 22.2042 11.8368 22.6559 11.4617 23.021C11.0855 23.3872 10.6282 23.5903 10.0911 23.6336C9.78926 23.6769 9.1345 23.698 8.12462 23.698C4.53452 23.698 2.74002 21.9246 2.74002 18.3778V10.4462H1.86996C1.33172 10.4462 0.886708 10.2742 0.531583 9.93021C0.177567 9.58618 0 9.1456 0 8.60847C0 8.07135 0.177567 7.66295 0.531583 7.31893C0.886708 6.9749 1.33172 6.80288 1.86996 6.80288H2.74002V4.77201C2.74002 4.04178 2.98196 3.42919 3.46581 2.93423C3.94967 2.44039 4.55671 2.19291 5.28804 2.19291C6.01938 2.19291 6.62641 2.43484 7.10916 2.9187C7.59191 3.40256 7.83495 4.0207 7.83495 4.77312V6.80399H10.06C10.5972 6.80399 11.0488 6.97601 11.414 7.32004C11.7791 7.66406 11.9622 8.09354 11.9622 8.60959C11.9622 9.12563 11.7791 9.5884 11.414 9.93132C11.0477 10.2753 10.5972 10.4474 10.06 10.4474H7.83495V17.7019C7.83495 18.411 7.93705 18.916 8.14125 19.2167C8.34545 19.5186 8.71611 19.6684 9.25324 19.6684H9.96237C10.5206 19.6473 11.0044 19.8349 11.4128 20.2322C11.8212 20.6306 12.0254 21.1078 12.0254 21.6671Z" fill="#004A5B"/>
<path id="Vector_2" d="M22.9876 6.54652C23.6101 6.54652 24.1484 6.77735 24.6 7.24013C25.0517 7.7029 25.277 8.25556 25.277 8.90034C25.277 9.54511 25.0462 10.0989 24.5834 10.5605C24.1206 11.0233 23.568 11.2542 22.9232 11.2542H22.5692C21.516 11.2542 20.6127 11.6947 19.8613 12.5759C19.1089 13.4582 18.7327 14.629 18.7327 16.0905V21.2165C18.7327 21.969 18.4908 22.5926 18.008 23.0865C17.5242 23.5815 16.9171 23.8278 16.1858 23.8278C15.4544 23.8278 14.8474 23.5815 14.3647 23.0865C13.8808 22.5926 13.6389 21.969 13.6389 21.2165V9.09344C13.6389 8.3843 13.8697 7.79279 14.3325 7.32003C14.7941 6.84727 15.3801 6.61089 16.0892 6.61089C16.7984 6.61089 17.3899 6.84727 17.8627 7.32003C18.3354 7.79279 18.5718 8.3843 18.5718 9.09344V10.2864C19.1733 7.79279 20.5172 6.54652 22.6025 6.54652H22.9898H22.9876Z" fill="#004A5B"/>
<path id="Vector_3" d="M38.5123 7.35222C38.9962 6.85838 39.6032 6.6109 40.3334 6.6109C41.0637 6.6109 41.6718 6.85283 42.1557 7.33669C42.6395 7.82055 42.8815 8.43869 42.8815 9.19111V21.3464C42.8815 22.0555 42.6506 22.647 42.1879 23.1198C41.7251 23.5926 41.1402 23.8289 40.4311 23.8289C39.722 23.8289 39.1304 23.5926 38.6577 23.1198C38.1849 22.647 37.9486 22.0555 37.9486 21.3464V20.9269C37.4758 21.8946 36.7822 22.6515 35.8689 23.1997C34.9555 23.7479 33.8857 24.022 32.6605 24.022C30.7262 24.022 29.2047 23.4583 28.0983 22.3296C26.9907 21.201 26.4381 19.6373 26.4381 17.6387V9.19111C26.4381 8.43869 26.68 7.82055 27.1638 7.33669C27.6477 6.85283 28.2547 6.6109 28.985 6.6109C29.7152 6.6109 30.3233 6.85283 30.8072 7.33669C31.2911 7.82055 31.533 8.43869 31.533 9.19111V16.4135C31.533 18.8428 32.5329 20.0568 34.5316 20.0568C35.5204 20.0568 36.3105 19.7073 36.902 19.0092C37.4924 18.3112 37.7887 17.2513 37.7887 15.8331V9.19111C37.7887 8.46088 38.0307 7.84829 38.5145 7.35333L38.5123 7.35222Z" fill="#004A5B"/>
<path id="Vector_4" d="M56.1652 6.41669C58.3148 6.41669 60.0549 7.23903 61.3889 8.8837C62.7217 10.5284 63.3876 12.6403 63.3876 15.2194C63.3876 17.7985 62.7206 19.9103 61.3889 21.555C60.0561 23.1997 58.3148 24.022 56.1652 24.022C53.6926 24.022 51.8981 23.0332 50.7806 21.0556V21.3453C50.7806 22.0544 50.5498 22.6459 50.087 23.1187C49.6242 23.5914 49.0283 23.8278 48.2981 23.8278C47.5678 23.8278 47.003 23.5914 46.5413 23.1187C46.0785 22.6459 45.8477 22.0544 45.8477 21.3453V3.06408C45.8477 2.31166 46.0896 1.69352 46.5735 1.20966C47.0573 0.725804 47.6644 0.483874 48.3946 0.483874C49.1248 0.483874 49.733 0.731351 50.2169 1.2252C50.7007 1.72015 50.9415 2.33274 50.9415 3.06297V9.12452C52.1023 7.31893 53.8436 6.41669 56.1652 6.41669ZM51.7483 18.9426C52.3931 19.8349 53.3065 20.281 54.4884 20.281C55.6703 20.281 56.5947 19.8349 57.2617 18.9426C57.9275 18.0515 58.2616 16.8097 58.2616 15.2183C58.2616 13.6268 57.9275 12.3861 57.2617 11.4939C56.5947 10.6016 55.6703 10.1555 54.4884 10.1555C53.3065 10.1555 52.392 10.6016 51.7483 11.4939C51.1035 12.3861 50.7806 13.6268 50.7806 15.2183C50.7806 16.8097 51.1024 18.0504 51.7483 18.9426Z" fill="#004A5B"/>
<path id="Vector_5" d="M76.0591 6.41669C78.2087 6.41669 79.9488 7.23903 81.2828 8.8837C82.6156 10.5284 83.2815 12.6403 83.2815 15.2194C83.2815 17.7985 82.6145 19.9103 81.2828 21.555C79.9499 23.1997 78.2087 24.022 76.0591 24.022C73.5865 24.022 71.792 23.0332 70.6745 21.0556V21.3453C70.6745 22.0544 70.4437 22.6459 69.9809 23.1187C69.5181 23.5914 68.9222 23.8278 68.192 23.8278C67.4617 23.8278 66.8969 23.5914 66.4352 23.1187C65.9724 22.6459 65.7416 22.0544 65.7416 21.3453V3.06408C65.7416 2.31166 65.9835 1.69352 66.4674 1.20966C66.9512 0.725804 67.5583 0.483874 68.2885 0.483874C69.0187 0.483874 69.6269 0.731351 70.1107 1.2252C70.5946 1.72015 70.8354 2.33274 70.8354 3.06297V9.12452C71.9962 7.31893 73.7375 6.41669 76.0591 6.41669ZM71.6422 18.9426C72.287 19.8349 73.2003 20.281 74.3822 20.281C75.5641 20.281 76.4886 19.8349 77.1556 18.9426C77.8214 18.0515 78.1555 16.8097 78.1555 15.2183C78.1555 13.6268 77.8214 12.3861 77.1556 11.4939C76.4886 10.6016 75.5641 10.1555 74.3822 10.1555C73.2003 10.1555 72.2859 10.6016 71.6422 11.4939C70.9974 12.3861 70.6745 13.6268 70.6745 15.2183C70.6745 16.8097 70.9963 18.0504 71.6422 18.9426Z" fill="#004A5B"/>
<path id="Vector_6" d="M85.4408 2.51585C85.4408 1.80671 85.7038 1.20965 86.231 0.725794C86.757 0.241936 87.3962 5.34058e-06 88.1498 5.34058e-06C88.9033 5.34058e-06 89.5414 0.241936 90.0686 0.725794C90.5946 1.20965 90.8587 1.8056 90.8587 2.51585C90.8587 3.2261 90.6013 3.84868 90.0852 4.32144C89.5692 4.7942 88.9244 5.03058 88.1509 5.03058C87.3774 5.03058 86.7326 4.7942 86.2166 4.32144C85.7005 3.84868 85.4431 3.24719 85.4431 2.51585H85.4408ZM90.0031 23.0865C89.5192 23.5815 88.9122 23.8278 88.1809 23.8278C87.4495 23.8278 86.8425 23.5859 86.3597 23.102C85.877 22.6182 85.6339 22.0011 85.6339 21.2476V9.18888C85.6339 8.43646 85.8759 7.81832 86.3597 7.33446C86.8436 6.8506 87.4506 6.60867 88.1809 6.60867C88.9111 6.60867 89.5192 6.85615 90.0031 7.35C90.4869 7.84495 90.7278 8.45754 90.7278 9.18777V21.2465C90.7278 21.9778 90.4858 22.5904 90.0031 23.0843V23.0865Z" fill="#004A5B"/>
</g>
</svg>
